<svg width="47" height="47" viewBox="0 0 47 47" fill="none" xmlns="http://www.w3.org/2000/svg">
<path fill-rule="evenodd" clip-rule="evenodd" d="M24.1324 19.0873L32.299 21.3902C33.3046 21.6737 34 22.593 34 23.64V28.3143C34 36.9882 24.5437 39.7943 24.1408 39.9096C23.9317 39.9704 23.7154 40 23.5 40C23.2846 40 23.0683 39.9696 22.8592 39.9096C22.4562 39.7951 13 36.989 13 28.3143V23.64C13 22.593 13.6945 21.6737 14.701 21.3902L22.8676 19.0873C23.0745 19.0288 23.2869 19 23.5 19C23.7124 19 23.9255 19.0288 24.1324 19.0873ZM15.3333 23.64V28.3143C15.3333 28.6977 15.3675 29.0606 15.4135 29.416L27.5382 22.4762L23.5 21.3372L15.3333 23.64ZM31.6667 28.3143C31.6667 35.3257 23.5 37.6629 23.5 37.6629C23.5 37.6629 21.1799 36.9882 19.013 35.3055L31.6667 28.0619V28.3143ZM17.2544 33.6196L31.6667 25.3703V23.6408L30.689 23.365L16.0683 31.7327C16.3887 32.4316 16.7948 33.0595 17.2544 33.6196Z" fill="#3262F2"/>
<path fill-rule="evenodd" clip-rule="evenodd" d="M45.8248 44.65H42.2998V25.85H44.6498C45.6007 25.85 46.4569 25.2774 46.8211 24.3992C47.1845 23.5211 46.9841 22.5106 46.3119 21.8377L25.162 0.687742C24.7031 0.229492 24.1015 0 23.4999 0C22.8982 0 22.2967 0.229492 21.8385 0.688568L15.2749 7.25131V4.7C15.2749 3.40199 14.2229 2.35 12.9249 2.35H10.5749C9.27694 2.35 8.22496 3.40199 8.22496 4.7V14.3013L0.688565 21.8377C0.0164316 22.5099 -0.184878 23.5204 0.17937 24.3992C0.542792 25.2774 1.3998 25.85 2.34999 25.85H4.69998V44.65H1.17499C0.525626 44.65 0 45.1756 0 45.825C0 46.4744 0.525626 47 1.17499 47H45.8248C46.4741 47 46.9998 46.4744 46.9998 45.825C46.9998 45.1756 46.4741 44.65 45.8248 44.65ZM10.5749 4.7H12.9249V9.60131L10.5749 11.9513V4.7ZM6.74525 45.0417H40.2545V23.5H45.0415L23.4999 1.95833L1.95821 23.5H6.74525V45.0417Z" fill="#3262F2"/>
</svg>
