<svg width="46" height="47" viewBox="0 0 46 47" fill="none" xmlns="http://www.w3.org/2000/svg">
<path fill-rule="evenodd" clip-rule="evenodd" d="M23.6191 19.0873L31.6121 21.3902C32.5963 21.6737 33.2768 22.593 33.2768 23.64V28.3143C33.2768 36.9882 24.0217 39.7943 23.6274 39.9096C23.4227 39.9704 23.211 40 23.0002 40C22.7894 40 22.5777 39.9696 22.373 39.9096C21.9786 39.7951 12.7236 36.989 12.7236 28.3143V23.64C12.7236 22.593 13.4034 21.6737 14.3884 21.3902L22.3813 19.0873C22.5838 19.0288 22.7917 19 23.0002 19C23.2081 19 23.4166 19.0288 23.6191 19.0873ZM15.0073 23.64V28.3143C15.0073 28.6977 15.0408 29.0606 15.0857 29.416L26.9525 22.4762L23.0002 21.3372L15.0073 23.64ZM30.9931 28.3143C30.9931 35.3257 23.0002 37.6629 23.0002 37.6629C23.0002 37.6629 20.7295 36.9882 18.6087 35.3055L30.9931 28.0619V28.3143ZM16.8875 33.6196L30.9931 25.3703V23.6408L30.0363 23.365L15.7267 31.7327C16.0402 32.4316 16.4377 33.0595 16.8875 33.6196Z" fill="#3262F2"/>
<path fill-rule="evenodd" clip-rule="evenodd" d="M44.8498 44.65H41.3998V25.85H43.6998C44.6305 25.85 45.4684 25.2774 45.8249 24.3992C46.1806 23.5211 45.9844 22.5106 45.3266 21.8377L24.6267 0.687742C24.1775 0.229492 23.5887 0 22.9999 0C22.411 0 21.8223 0.229492 21.3738 0.688568L14.9499 7.25131V4.7C14.9499 3.40199 13.9203 2.35 12.6499 2.35H10.3499C9.07956 2.35 8.04996 3.40199 8.04996 4.7V14.3013L0.673915 21.8377C0.016082 22.5099 -0.180944 23.5204 0.175554 24.3992C0.531243 25.2774 1.37002 25.85 2.29999 25.85H4.59998V44.65H1.14999C0.514443 44.65 0 45.1756 0 45.825C0 46.4744 0.514443 47 1.14999 47H44.8498C45.4853 47 45.9998 46.4744 45.9998 45.825C45.9998 45.1756 45.4853 44.65 44.8498 44.65ZM10.35 4.7H12.6499V9.60131L10.35 11.9513V4.7ZM6.60174 45.0417H39.398V23.5H44.0832L22.9999 1.95833L1.91655 23.5H6.60174V45.0417Z" fill="#3262F2"/>
</svg>
