<svg width="46" height="47" viewBox="0 0 46 47" fill="none" xmlns="http://www.w3.org/2000/svg">
<path fill-rule="evenodd" clip-rule="evenodd" d="M30.6667 31.3324H38.3333V29.374H30.6667V31.3324ZM38.3333 15.6657C38.3333 18.9058 34.8948 21.5407 30.6667 21.5407H15.3333C11.1052 21.5407 7.66667 18.9058 7.66667 15.6657V13.7074C7.66667 10.4683 11.1052 7.83235 15.3333 7.83235H30.6667C34.8948 7.83235 38.3333 10.4683 38.3333 13.7074V15.6657ZM30.6667 5.87402H15.3333C9.69706 5.87402 5.11111 9.38825 5.11111 13.7074V15.6657C5.11111 19.9858 9.69706 23.499 15.3333 23.499H30.6667C36.3029 23.499 40.8889 19.9858 40.8889 15.6657V13.7074C40.8889 9.38825 36.3029 5.87402 30.6667 5.87402ZM43.4444 39.1657C43.4444 42.4058 40.0059 45.0407 35.7778 45.0407H10.2222C5.99406 45.0407 2.55556 42.4058 2.55556 39.1657V7.83333C2.55556 4.59425 5.99406 1.95833 10.2222 1.95833H35.7778C40.0059 1.95833 43.4444 4.59425 43.4444 7.83333V39.1657ZM35.7778 0H10.2222C4.58594 0 0 3.51423 0 7.83333V39.1657C0 43.4858 4.58594 46.999 10.2222 46.999H35.7778C41.4141 46.999 46 43.4858 46 39.1657V7.83333C46 3.51423 41.4141 0 35.7778 0ZM13.0704 35.249L11.7926 36.7178L10.5148 35.249H7.95928L10.5148 38.1865L7.95928 41.124H10.5148L11.7926 39.6553L13.0704 41.124H15.6259L13.0704 38.1865L15.6259 35.249H13.0704ZM30.9593 41.124H33.5148L38.6259 35.249H36.0704L30.9593 41.124ZM10.2222 27.4157V29.374H7.66667V31.3324H10.2222V33.2907H12.7778V31.3324H15.3333V29.374H12.7778V27.4157H10.2222Z" fill="#3262F2"/>
</svg>
