<svg width="75" height="67" viewBox="0 0 75 67" fill="none" xmlns="http://www.w3.org/2000/svg">
<mask id="mask0" mask-type="alpha" maskUnits="userSpaceOnUse" x="0" y="0" width="75" height="67">
<path fill-rule="evenodd" clip-rule="evenodd" d="M0 0H75V67H0V0Z" fill="white"/>
</mask>
<g mask="url(#mask0)">
<path fill-rule="evenodd" clip-rule="evenodd" d="M3.00209 14.9515C3.00209 14.4359 3.41944 14.0155 3.93481 14.0155H71.0652C71.5711 14.0155 71.9979 14.4438 71.9979 14.9546L72.0359 32.8155C64.3291 36.7275 55.1284 39.0324 44.6566 39.6749V39.0927C44.6566 37.5333 43.3919 36.2642 41.8363 36.2642H33.1621C31.6065 36.2642 30.3418 37.5333 30.3418 39.0927V39.7051C20.0598 39.1308 10.8575 36.9718 2.96415 33.285L3.00209 14.9515ZM28.0732 5.45233C28.0732 4.08488 29.1814 2.97284 30.5441 2.97284H44.4559C45.7949 2.97284 46.9268 4.10868 46.9268 5.45233V11.0427H28.0732V5.45233ZM33.3028 45.0638V39.2339L41.6941 39.0927L41.8363 44.9226L33.3028 45.0638ZM68.501 63.0912C68.501 63.5893 68.0647 64.0272 67.5667 64.0272H7.43329C6.92741 64.0272 6.49899 63.5988 6.49899 63.0912V37.9791C13.6319 40.6299 21.6232 42.2083 30.3418 42.6827V45.0638C30.3418 46.6248 31.6065 47.8939 33.1621 47.8939H41.8363C43.3919 47.8939 44.6566 46.6248 44.6566 45.0638V42.6525C53.4922 42.1274 61.4819 40.4538 68.501 37.6634V63.0912ZM0.834709 35.5599C1.72 35.9898 2.6211 36.4022 3.53643 36.7957V63.0912C3.53643 65.2471 5.28488 67 7.43329 67H67.5667C69.7151 67 71.4636 65.2471 71.4636 63.0912V36.3927C72.3979 35.9612 73.3148 35.5075 74.2096 35.0332C74.6981 34.7778 75.0016 34.2686 75 33.7165L74.9605 14.9515C74.9605 12.7972 73.212 11.0427 71.0652 11.0427H49.8893V5.45233C49.8893 2.44776 47.45 0 44.4559 0H30.5441C27.5484 0 25.1107 2.44776 25.1107 5.45233V11.0427H3.93481C1.7864 11.0427 0.0395277 12.7972 0.0395277 14.9483L5.75759e-06 34.2194C-0.00157512 34.7905 0.322505 35.3108 0.834709 35.5599Z" fill="#3262F2"/>
</g>
</svg>
