<svg width="76" height="76" viewBox="0 0 76 76" fill="none" xmlns="http://www.w3.org/2000/svg">
<path fill-rule="evenodd" clip-rule="evenodd" d="M61.4138 67H50.5862C49.7093 67 49 67.6724 49 68.5C49 69.3276 49.7093 70 50.5862 70H61.4138C62.289 70 63 69.3276 63 68.5C63 67.6724 62.289 67 61.4138 67Z" fill="#3262F2"/>
<path fill-rule="evenodd" clip-rule="evenodd" d="M23.4095 19.5824L24.0757 19.4794C24.5165 19.4123 24.9067 19.1524 25.1435 18.7698C25.3786 18.3904 25.4341 17.9261 25.2986 17.4993C25.0423 16.7014 24.9133 15.8724 24.9133 15.032V12.8574C24.9133 8.36752 28.5607 4.71644 33.0425 4.71644H34.1952C34.6197 4.71644 34.974 4.66412 35.2646 4.35345C35.5536 4.04279 35.6516 3.75012 35.6222 3.32664C36.0402 2.9702 38.6313 2.71022 42.571 4.2063C43.4053 4.5235 44.1988 4.88321 45.0625 5.33776C48.114 6.61637 50.0847 9.56765 50.0847 12.8574V15.032C50.0847 15.8741 49.9557 16.7047 49.7026 17.4993C49.5655 17.9261 49.6226 18.3904 49.8577 18.7698C50.0929 19.1524 50.4831 19.4107 50.9255 19.4794L51.5884 19.5824C51.7811 19.6118 51.9656 19.8636 51.9362 20.0598L51.0202 25.964C50.9843 26.1896 50.7721 26.3564 50.5451 26.3139L50.0112 26.2289C49.2553 26.1063 48.5173 26.5755 48.305 27.3178C46.6234 33.1583 42.0355 37.725 37.7839 37.9392C33.3625 37.725 28.7665 33.1337 27.0978 27.2606C26.9101 26.5951 26.3011 26.1488 25.6284 26.1488C25.5517 26.1488 25.4717 26.1553 25.3916 26.1668L24.4577 26.3139C24.2308 26.3433 24.0169 26.188 23.981 25.964L23.0634 20.0598C23.0291 19.8358 23.1875 19.6167 23.4095 19.5824ZM20.9589 26.4382C21.2364 28.2106 22.8528 29.4647 24.5639 29.378C26.8839 35.9264 32.2245 40.7351 37.7839 41C43.1947 40.7351 48.5385 35.9199 50.857 29.3731C52.4358 29.257 53.7877 28.0667 54.0424 26.4349L54.9583 20.5291C55.1004 19.6134 54.8767 18.6962 54.3281 17.9441C53.9771 17.4617 53.5215 17.0873 52.9974 16.8404C53.0954 16.2452 53.1444 15.6403 53.1444 15.032V12.8574C53.1444 8.32828 50.4357 4.26843 46.3736 2.57451C45.5262 2.1216 44.6135 1.7063 43.6551 1.34168C39.4688 -0.242692 34.5381 -0.75283 33.0654 1.65234H33.0425C26.8741 1.65234 21.8536 6.67851 21.8536 12.8574V15.032C21.8536 15.6403 21.9042 16.2452 22.0022 16.842C20.6405 17.4813 19.7996 18.9676 20.0413 20.5291L20.9589 26.4382Z" fill="#3262F2"/>
<mask id="mask0" mask-type="alpha" maskUnits="userSpaceOnUse" x="0" y="43" width="76" height="33">
<path fill-rule="evenodd" clip-rule="evenodd" d="M0.000183105 43.387H75.701V75.9994H0.000183105V43.387Z" fill="white"/>
</mask>
<g mask="url(#mask0)">
<path fill-rule="evenodd" clip-rule="evenodd" d="M67.5378 48.7711C62.7051 47.7927 53.785 45.6229 50.9945 43.6941C50.7979 43.5588 50.5732 43.4697 50.3386 43.435L50.1238 43.4037C49.3126 43.2849 48.5592 43.8112 48.3874 44.6065L43.6011 66.6687L41.4218 55.1269L44.4651 47.2894C44.6502 46.8142 44.5891 46.278 44.2999 45.8572C44.0108 45.4365 43.5333 45.184 43.0228 45.184H32.6785C32.168 45.184 31.6905 45.4365 31.4014 45.8572C31.1139 46.278 31.0528 46.8142 31.2362 47.2894L34.2795 55.122L32.0309 66.7033L27.3156 44.6115C27.1471 43.8162 26.392 43.2981 25.5758 43.4037L25.3627 43.435C25.1281 43.4697 24.9051 43.5588 24.7084 43.6941C21.9179 45.6229 12.9962 47.7927 8.16357 48.7711C4.10088 49.5912 0.000183105 52.3912 0.000183105 56.7951L0.00844397 58.6365L1.7647 74.5705C1.85888 75.4203 2.63375 76.0374 3.4714 75.9384C4.32227 75.846 4.93523 75.082 4.84105 74.2339L3.09636 58.4682V56.7951C3.09636 53.7574 6.66836 52.2262 8.77818 51.8005C11.5671 51.2362 20.0757 49.4047 24.7084 47.2201L30.5885 74.7751C30.7405 75.4896 31.3733 75.9994 32.1019 75.9994H32.1168C32.852 75.9928 33.4815 75.4698 33.6219 74.7487L37.4037 55.2721C37.4583 54.9867 37.4318 54.6913 37.3261 54.4191L34.9404 48.2761H40.761L38.3769 54.4191C38.2728 54.688 38.2447 54.9817 38.2992 55.2639L41.9737 74.7405C42.1108 75.4632 42.7386 75.9895 43.4738 75.9978C43.4804 75.9978 43.4887 75.9994 43.4953 75.9994C44.2223 75.9978 44.8534 75.4929 45.0071 74.7817L50.9879 47.2168C55.6173 49.4047 64.1343 51.2362 66.9231 51.8005C69.033 52.2262 72.605 53.7591 72.605 56.7951L72.6149 58.2999L70.8603 74.2339C70.7677 75.082 71.3807 75.846 72.2299 75.9384C73.0924 76.0407 73.8441 75.4203 73.9383 74.5705L75.7011 58.4682V56.7951C75.7011 52.3912 71.6004 49.5912 67.5378 48.7711Z" fill="#3262F2"/>
</g>
</svg>
