<svg width="74" height="68" viewBox="0 0 74 68" fill="none" xmlns="http://www.w3.org/2000/svg">
<mask id="mask0" mask-type="alpha" maskUnits="userSpaceOnUse" x="0" y="0" width="74" height="62">
<path fill-rule="evenodd" clip-rule="evenodd" d="M0 0.410156H73.9795V61.9191H0V0.410156Z" fill="white"/>
</mask>
<g mask="url(#mask0)">
<path fill-rule="evenodd" clip-rule="evenodd" d="M66.8826 8.62936C64.6485 6.20341 62.1356 4.16695 59.6165 2.74095C55.6189 0.478744 45.0904 -1.95356 38.0462 4.96818L35.4909 7.53721L33.4582 5.49756C25.1104 -2.71187 13.5995 0.311821 6.55058 7.53562C-0.0763574 14.3222 -3.38904 25.4791 4.995 33.9333L9.52947 38.5038C10.1042 39.0809 11.0394 39.0825 11.6141 38.5006C12.1903 37.9204 12.1903 36.9761 11.6125 36.3942L7.08117 31.8237C0.120451 24.8082 3.01432 15.3969 8.65092 9.62454C14.4922 3.64233 24.1012 0.454898 31.391 7.62146L33.3984 9.63885L24.4192 18.6606C22.7723 20.314 22.7093 22.3997 24.2539 23.972C26.6282 26.3947 32.945 27.2087 36.7961 23.3726L40.1844 19.9992C41.8045 18.5176 43.5726 18.9595 46.5578 19.8704C50.1287 20.9626 54.5782 22.3202 59.4936 18.3999C60.1313 17.8912 60.2415 16.9533 59.7377 16.3078C59.2323 15.6656 58.3096 15.5495 57.6657 16.0614C53.9594 19.0167 50.7774 18.0518 47.4112 17.02C44.4716 16.125 41.1353 15.106 38.1596 17.8372L34.7257 21.2519C32.0947 23.8686 27.6579 23.2121 26.3479 21.8767C26.0866 21.608 25.8772 21.3982 26.5007 20.7718L40.1135 7.09208C46.4759 0.849154 56.1274 4.18126 58.1711 5.34018C60.4289 6.61674 62.6945 8.45608 64.7225 10.6563C70.3921 16.8102 74.4196 26.6141 67.1093 33.9826L63.2661 37.86L47.5119 21.1852C46.9514 20.5874 46.0146 20.5667 45.4273 21.1375C44.8369 21.705 44.8149 22.6461 45.3801 23.2407L62.9244 41.8137C64.2029 43.1681 63.74 45.2221 62.578 46.3492C61.9057 47.0042 60.506 47.8324 58.7206 45.974C58.719 45.974 58.719 45.9724 58.7174 45.9724L49.8815 36.7662C49.3179 36.1764 48.381 36.1589 47.7985 36.7344C47.2144 37.3052 47.197 38.2495 47.7654 38.8393L48.285 39.3829C48.3133 39.4163 48.3448 39.4513 48.3763 39.4831L56.5919 48.0359L56.5998 48.0439C58.5348 50.0613 57.3366 51.6637 56.7273 52.2567C55.7354 53.2296 53.7279 53.9688 52.3645 52.5572L43.3254 43.1777C42.7586 42.5879 41.8234 42.5752 41.2408 43.1506C40.6567 43.7245 40.6441 44.6657 41.2125 45.2555L48.7999 53.1279C48.8597 53.3647 48.9793 53.5905 49.1604 53.7797C51.086 55.8241 49.9524 57.3614 49.3761 57.9273C48.4251 58.8573 46.4712 59.533 45.0825 58.1276L40.5654 53.5301C39.9939 52.9419 39.0618 52.9419 38.4824 53.5221C37.9045 54.1008 37.8998 55.0419 38.4745 55.6254L42.9901 60.2229C44.1536 61.4104 45.5738 61.9192 46.9735 61.9192C48.6314 61.9192 50.2641 61.2069 51.4308 60.0639C52.4447 59.0687 53.1328 57.7191 53.191 56.2342C55.189 56.5983 57.3303 55.8193 58.782 54.3949C59.8888 53.3091 60.6336 51.7591 60.5863 50.0787C62.1813 50.1757 63.5668 49.5207 64.6217 48.4954C66.733 46.4462 67.5376 42.6896 65.294 40.022L69.1939 36.0906C77.4268 27.7905 73.9662 16.3158 66.8826 8.62936Z" fill="#3262F2"/>
</g>
<mask id="mask1" mask-type="alpha" maskUnits="userSpaceOnUse" x="6" y="30" width="38" height="38">
<path fill-rule="evenodd" clip-rule="evenodd" d="M6.15674 30.749H43.396V67.9999H6.15674V30.749Z" fill="white"/>
</mask>
<g mask="url(#mask1)">
<path fill-rule="evenodd" clip-rule="evenodd" d="M18.1347 33.7146C17.4 33.7146 16.7144 33.998 16.2014 34.511L9.91558 40.7984C9.401 41.3099 9.12075 41.997 9.12075 42.7333C9.12075 43.4679 9.40417 44.1567 9.91717 44.6681L10.4017 45.1542C11.4514 46.2008 13.2232 46.2024 14.2745 45.1542L20.554 38.8684C21.6038 37.8186 21.6053 36.0437 20.5556 34.9939L20.0743 34.511C19.5581 33.998 18.8725 33.7146 18.1363 33.7146H18.1347ZM28.7082 36.5884C27.9735 36.5884 27.2847 36.8718 26.7718 37.3864L16.7603 47.3962C15.6948 48.4634 15.6948 50.2019 16.7603 51.269L17.2448 51.7551C18.2962 52.7985 20.0679 52.8033 21.1177 51.7551L31.1275 41.7437C32.1931 40.6749 32.1931 38.9412 31.1275 37.8724L30.6414 37.3848C30.1268 36.8718 29.4428 36.5884 28.7082 36.5884ZM32.7979 45.9395C32.0965 45.9395 31.3967 46.2071 30.8615 46.7407L23.9978 53.6013C22.9322 54.6684 22.9322 56.4069 24.0009 57.4757L24.4838 57.9602C25.5083 58.9862 27.3323 58.9862 28.3583 57.9602L35.2188 51.098C36.286 50.0309 36.286 48.2924 35.2188 47.2236L34.7343 46.7407C34.1992 46.2071 33.4993 45.9395 32.7979 45.9395ZM37.2107 54.8616C36.5077 54.8616 35.8078 55.1292 35.2727 55.6628L31.0594 59.876C29.9923 60.9448 29.9923 62.6817 31.061 63.7504L31.5439 64.2334C32.5937 65.2831 34.3686 65.2831 35.4183 64.2334L39.63 60.0201C40.6972 58.9514 40.6972 57.216 39.63 56.1473L39.1471 55.6628C38.6119 55.1292 37.9105 54.8616 37.2107 54.8616ZM33.4803 68.0001C32.0221 68.0001 30.5607 67.4428 29.4492 66.3313L28.9631 65.8452C27.812 64.6941 27.2578 63.1709 27.2974 61.6573C25.5653 61.9344 23.7222 61.3913 22.3875 60.0565L21.903 59.572C20.7598 58.4289 20.2057 56.9199 20.2342 55.4221C18.4529 55.7562 16.5308 55.2321 15.1485 53.853L14.6656 53.3654C13.4353 52.1383 12.8843 50.4837 13.0142 48.8734C12.7925 48.9004 12.5661 48.913 12.3397 48.913H12.3381C10.8086 48.913 9.37567 48.3224 8.30533 47.2505L7.82083 46.766C6.74733 45.6941 6.15675 44.2628 6.15675 42.7364C6.15358 41.2069 6.74575 39.7756 7.81925 38.7005L14.1035 32.4147C15.1754 31.3412 16.6083 30.749 18.1347 30.749H18.1394C19.6658 30.749 21.0971 31.3412 22.1706 32.4147L22.6535 32.8944C23.4673 33.7099 23.9835 34.7121 24.202 35.7619L24.6738 35.2916C25.7473 34.2149 27.1787 33.6228 28.7066 33.6228H28.7082C30.2345 33.6228 31.6643 34.2149 32.7393 35.2884L33.2254 35.7793C35.2093 37.76 35.4231 40.8539 33.8683 43.0769C34.9861 43.2859 36.0121 43.8242 36.8307 44.6428L37.3152 45.1289C39.1724 46.9845 39.4796 49.8139 38.2367 51.991C39.3403 52.1905 40.3932 52.7162 41.2418 53.5664L41.7263 54.0525C43.9525 56.2739 43.9525 59.8934 41.7263 62.1149L37.5147 66.3313C36.4032 67.4428 34.9417 68.0001 33.4803 68.0001Z" fill="#3262F2"/>
</g>
</svg>
