<svg width="72" height="73" viewBox="0 0 72 73" fill="none" xmlns="http://www.w3.org/2000/svg">
<mask id="mask0" mask-type="alpha" maskUnits="userSpaceOnUse" x="0" y="0" width="72" height="73">
<path fill-rule="evenodd" clip-rule="evenodd" d="M0 0H72V73H0V0Z" fill="white"/>
</mask>
<g mask="url(#mask0)">
<path fill-rule="evenodd" clip-rule="evenodd" d="M47.4005 20.8057C47.369 20.8057 47.3391 20.8057 47.3092 20.8088C46.1904 20.8325 45.1502 21.2906 44.376 22.0967C43.6034 22.9044 43.1911 23.9655 43.2131 25.0817C43.2367 26.1996 43.6962 27.2418 44.5019 28.0148C46.1683 29.6113 48.8199 29.5562 50.4171 27.8889C51.1897 27.0812 51.6036 26.0217 51.58 24.9054C51.5564 23.7876 51.0984 22.7438 50.2912 21.9707H50.2896C49.506 21.2182 48.4831 20.8057 47.4005 20.8057ZM47.3942 32.1224C45.6191 32.1224 43.8425 31.4675 42.4625 30.1434C41.0872 28.8257 40.3082 27.0513 40.2673 25.1447C40.2264 23.2381 40.9298 21.4323 42.2485 20.0563C43.5672 18.6787 45.3406 17.8994 47.2463 17.86C49.133 17.7781 50.9568 18.5228 52.3321 19.8422C53.7059 21.1615 54.4864 22.9374 54.5258 24.8409C54.5667 26.7459 53.8633 28.5533 52.5446 29.9293C51.1457 31.3903 49.2715 32.1224 47.3942 32.1224ZM36.7346 31.9398H36.6433C35.526 31.9634 34.4859 32.4216 33.7132 33.2308C32.116 34.8949 32.1727 37.5509 33.8376 39.1474C35.5056 40.747 38.1555 40.6887 39.7543 39.0214C41.3484 37.3573 41.2917 34.6997 39.6284 33.1049C38.8416 32.3523 37.8188 31.9398 36.7346 31.9398ZM36.7314 43.2581C34.9548 43.2581 33.1782 42.6016 31.7982 41.2775C28.9594 38.5538 28.8634 34.0275 31.5842 31.1904C32.9013 29.8144 34.6763 29.0335 36.5819 28.991C38.5285 28.9862 40.2925 29.6569 41.6663 30.9763C44.505 33.6968 44.601 38.2216 41.8818 41.0618C40.4829 42.5229 38.6087 43.2581 36.7314 43.2581ZM51.72 3.27166L68.8739 19.7209C69.3963 15.0891 68.6032 10.029 66.4395 5.11685C61.4449 3.17877 56.348 2.55374 51.72 3.27166ZM17.8277 19.373C17.5885 19.373 17.3525 19.3809 17.118 19.395C6.64094 20.1334 4.27267 28.8634 3.1381 38.2027L15.7647 37.3431C16.6223 36.1324 17.4894 34.876 18.3722 33.5835C18.4288 33.3331 18.5516 33.097 18.7404 32.897C18.8144 32.8183 18.8962 32.7506 18.9796 32.6908C19.7837 31.51 20.6004 30.2977 21.436 29.0571C23.1953 26.4452 24.975 23.8049 26.7784 21.2229C26.1017 21.0497 25.4314 20.8655 24.7705 20.6845C22.3172 20.0122 19.9867 19.373 17.8277 19.373ZM21.8184 33.7834L39.811 50.8546L51.9828 41.7089C52.0725 41.6396 52.1701 41.583 52.2708 41.5389C56.4267 38.2941 60.3182 35.0083 63.478 31.7084C65.7534 29.3326 67.3412 26.4137 68.2177 23.1767L48.2848 4.06201C45.125 5.08222 42.302 6.80618 40.0061 9.20241C36.8447 12.5039 33.729 16.5344 30.6636 20.8293C30.6227 20.9301 30.5708 21.0277 30.5078 21.1174L21.8184 33.7834ZM26.8256 46.6163L35.0083 54.4631L37.4191 52.651L20.1299 36.2473L18.4949 38.6263L26.6792 46.4762L25.8059 47.679L26.8256 46.6163ZM12.4696 44.9412C12.4995 45.2198 12.6553 45.6496 12.874 45.859L27.8925 60.2632C28.1301 60.4914 28.5644 60.6127 28.8256 60.6205L30.4937 54.2175L24.7862 48.7433L18.6633 42.874L12.4696 44.9412ZM36.4088 57.1364L36.0878 69.7945C45.3642 68.2626 53.9797 65.5248 54.2708 55.0204C54.3369 52.6588 53.5234 50.1193 52.661 47.4287C52.4517 46.7753 52.2393 46.1109 52.0379 45.4434C49.5311 47.3594 46.9646 49.2534 44.4248 51.1285C43.221 52.0165 42.0455 52.884 40.8968 53.7389C40.87 53.7719 40.8433 53.805 40.8118 53.8365C40.6607 53.9971 40.4813 54.1136 40.2893 54.1923C38.9502 55.1905 37.6551 56.1713 36.4088 57.1364ZM34.5693 73C34.2121 73 33.8643 72.8709 33.5937 72.6332C33.2663 72.3419 33.0838 71.9247 33.0948 71.4886L33.4615 57.0624L32.9312 56.5523L31.6093 61.6282C31.378 62.5193 30.714 63.1821 29.7903 63.4434C28.5219 63.8071 26.8649 63.3616 25.8531 62.3917L10.8362 47.9907C9.80546 47.0036 9.2846 45.2891 9.62607 44.0012C9.86998 43.0739 10.5262 42.4111 11.4247 42.1844L16.2588 40.5675L15.9646 40.2841L1.57236 41.2634C1.14119 41.3122 0.713173 41.128 0.41104 40.8147C0.108908 40.5014 -0.0374371 40.0684 0.00819748 39.6354C1.16008 28.9154 3.51104 17.3987 16.9119 16.4556C19.7711 16.251 22.7075 17.0618 25.5494 17.8395C26.5612 18.1182 27.5982 18.4032 28.6085 18.6346C31.6329 14.4215 34.7188 10.4619 37.8786 7.16199C44.8827 -0.149495 56.0584 -2.00256 67.2011 2.24831C67.4671 2.34907 67.7315 2.45455 67.9942 2.56004C68.331 2.69858 68.6976 2.993 68.8613 3.32047C68.866 3.32992 68.8707 3.33779 68.8739 3.34723C68.8802 3.35983 68.8865 3.37242 68.8912 3.38502L68.8943 3.38974C68.8975 3.39289 68.8975 3.39604 68.8991 3.39919C68.9006 3.40391 68.9022 3.40864 68.9054 3.41178C71.8999 9.93293 72.7576 16.9091 71.3193 23.0681C71.2941 23.1704 71.2579 23.2728 71.2123 23.3672C70.2461 27.3016 68.3656 30.8676 65.6055 33.7488C62.4457 37.0471 58.6218 40.3014 54.5462 43.5037C54.82 44.505 55.1473 45.5284 55.4668 46.5297C56.3669 49.3353 57.2969 52.24 57.2182 55.1023C56.8452 68.535 45.4445 71.3768 34.788 72.9858C34.7156 72.9937 34.6417 73 34.5693 73Z" fill="#3262F2"/>
</g>
</svg>
