<svg width="66" height="43" viewBox="0 0 66 43" fill="none" xmlns="http://www.w3.org/2000/svg">
<path fill-rule="evenodd" clip-rule="evenodd" d="M26.2383 4.56577C22.3903 3.14488 18.578 1.57003 14.4485 0.817035C11.7921 0.332925 8.75424 0.264618 6.61415 1.61828C4.55408 2.91936 3.8888 5.17131 3.53134 7.25629C3.26208 8.82842 3.10379 10.4792 3.84091 11.9494C4.35315 12.9702 5.26257 13.8278 5.89163 14.8053C8.07904 18.207 6.53413 22.4019 4.16157 25.7235C3.05181 27.2815 1.75922 28.768 0.901201 30.4263C0.0431784 32.0847 -0.354 33.9853 0.396551 35.6773C1.14126 37.3546 2.91455 38.6139 4.83561 39.4997C8.73789 41.2995 13.3364 41.8146 17.8204 42.1062C27.7464 42.7519 37.7255 42.4721 47.6777 42.1924C51.361 42.0883 55.06 41.9837 58.6837 41.4421C60.6953 41.1412 62.7723 40.6642 64.2325 39.5116C66.087 38.0479 66.5467 35.5721 65.3037 33.7381C63.2215 30.6627 57.4583 29.8994 56.0016 26.5968C55.1996 24.7796 56.0232 22.7554 57.1884 21.0672C59.6883 17.4519 63.8785 14.2799 64.0993 10.1468C64.2512 7.30833 62.2367 4.46547 59.1223 3.12265C55.8573 1.71315 51.3306 1.89205 48.9218 4.22206C46.4418 6.62526 42.0834 7.54849 38.3476 7.42489C34.1164 7.28556 30.0862 5.98665 26.2383 4.56577Z" fill="#3262F2"/>
</svg>
