<?xml version="1.0" encoding="utf-8"?>
<!-- Generator: Adobe Illustrator 20.0.0, SVG Export Plug-In . SVG Version: 6.00 Build 0)  -->
<svg version="1.1" id="Layer_1" xmlns="http://www.w3.org/2000/svg" xmlns:xlink="http://www.w3.org/1999/xlink" x="0px" y="0px"
	 viewBox="0 0 66 55" style="enable-background:new 0 0 66 55;" xml:space="preserve">
<style type="text/css">
	.st0{fill:none;stroke:#3262F2;stroke-width:2;}
	.st1{opacity:0.1;fill:#3262F2;}
</style>
<g>
	<path class="st0" d="M44,1h1h9c1.1,0,2,0.9,2,2v38c0,1.1-0.9,2-2,2H12c-1.1,0-2-0.9-2-2V3c0-1.1,0.9-2,2-2h9h1h1h20H44z"/>
	<path class="st0" d="M50,32v6h-4v-6H50z"/>
	<path class="st0" d="M40,22v16h-4V22H40z"/>
	<path class="st0" d="M30,10v28h-4V10H30z"/>
	<path class="st0" d="M20,28v10h-4V28H20z"/>
</g>
<path class="st1" d="M26.2,17.1c-3.8-1.4-7.7-3-11.8-3.7c-2.7-0.5-5.7-0.6-7.8,0.8c-2.1,1.3-2.7,3.6-3.1,5.6
	c-0.3,1.6-0.4,3.2,0.3,4.7c0.5,1,1.4,1.9,2.1,2.9c2.2,3.4,0.6,7.6-1.7,10.9c-1.1,1.6-2.4,3-3.3,4.7c-0.9,1.7-1.3,3.6-0.5,5.3
	c0.7,1.7,2.5,2.9,4.4,3.8c3.9,1.8,8.5,2.3,13,2.6c9.9,0.6,19.9,0.4,29.9,0.1c3.7-0.1,7.4-0.2,11-0.8c2-0.3,4.1-0.8,5.5-1.9
	c1.9-1.5,2.3-3.9,1.1-5.8c-2.1-3.1-7.8-3.8-9.3-7.1c-0.8-1.8,0-3.8,1.2-5.5c2.5-3.6,6.7-6.8,6.9-10.9c0.2-2.8-1.9-5.7-5-7
	c-3.3-1.4-7.8-1.2-10.2,1.1c-2.5,2.4-6.8,3.3-10.6,3.2C34.1,19.8,30.1,18.5,26.2,17.1z"/>
</svg>
