<?xml version="1.0" encoding="utf-8"?>
<!-- Generator: Adobe Illustrator 20.0.0, SVG Export Plug-In . SVG Version: 6.00 Build 0)  -->
<svg version="1.1" id="Layer_1" xmlns="http://www.w3.org/2000/svg" xmlns:xlink="http://www.w3.org/1999/xlink" x="0px" y="0px"
	 viewBox="0 0 66 57" style="enable-background:new 0 0 66 57;" xml:space="preserve">
<style type="text/css">
	.st0{fill:#3262F2;}
	.st1{opacity:0.1;fill:#3262F2;}
</style>
<path class="st0" d="M26.6,37.6c-0.3-0.1-0.6-0.3-0.8-0.4c-0.5-0.3-1.1-0.1-1.4,0.4s-0.1,1.1,0.4,1.4c0.3,0.2,0.6,0.3,1,0.5
	c0.1,0.1,0.3,0.1,0.4,0.1c0.4,0,0.7-0.2,0.9-0.6C27.3,38.4,27.1,37.8,26.6,37.6z M37.6,38.3c-0.3,0.1-0.6,0.2-0.9,0.3
	c-0.5,0.1-0.9,0.7-0.7,1.2c0.1,0.5,0.5,0.8,1,0.8c0.1,0,0.2,0,0.2,0c0.3-0.1,0.7-0.2,1-0.3c0.5-0.2,0.8-0.7,0.6-1.3
	C38.7,38.4,38.2,38.1,37.6,38.3z M34,39c-0.3,0-0.6,0-0.9,0c-0.6,0-1,0.5-1,1c0,0.6,0.4,1,1,1h0c0.4,0,0.7,0,1.1,0
	c0.6,0,1-0.5,0.9-1.1C35,39.4,34.5,38.9,34,39z M32,31c0,0.6,0.4,1,1,1s1-0.4,1-1v-1c0,0,0,0,0,0c1.7-0.3,2.8-1.5,2.8-3.2
	c0-2-1.3-2.6-2.9-3.4L33,22.9c-1.6-0.8-1.8-0.9-1.8-1.6c0-1.2,1.2-1.3,1.8-1.3c0.5,0,1.7,0.1,1.7,1.3c0,0.6,0.4,1,1,1
	c0.6,0,1-0.4,1-1c0-1.7-1.1-2.9-2.7-3.2c0,0,0,0,0,0v-1c0-0.6-0.4-1-1-1s-1,0.4-1,1v1c0,0,0,0,0,0c-1.7,0.3-2.8,1.6-2.8,3.2
	c0,2,1.3,2.6,2.9,3.4l0.9,0.4c1.6,0.8,1.8,0.9,1.8,1.7c0,1.2-1.2,1.3-1.8,1.3s-1.8-0.1-1.8-1.3c0-0.6-0.4-1-1-1c-0.6,0-1,0.4-1,1
	c0,1.7,1.1,2.9,2.8,3.2c0,0,0,0,0,0V31z M28,8.8c-0.2-0.5-0.8-0.8-1.3-0.6c-0.3,0.1-0.7,0.3-1,0.4C25.2,8.9,25,9.5,25.2,10
	c0.2,0.4,0.5,0.6,0.9,0.6c0.1,0,0.3,0,0.4-0.1c0.3-0.1,0.6-0.3,0.9-0.4C28,9.9,28.2,9.3,28,8.8z M30.2,38.7
	c-0.3-0.1-0.6-0.1-0.9-0.2c-0.5-0.1-1.1,0.2-1.2,0.7c-0.1,0.5,0.2,1.1,0.7,1.2c0.3,0.1,0.7,0.2,1,0.2c0.1,0,0.1,0,0.2,0
	c0.5,0,0.9-0.3,1-0.8C31.1,39.4,30.7,38.8,30.2,38.7z M39.2,8.2c-0.3-0.1-0.7-0.2-1-0.4c-0.5-0.2-1.1,0.1-1.3,0.6
	c-0.2,0.5,0.1,1.1,0.6,1.3c0.3,0.1,0.6,0.2,0.9,0.3c0.1,0,0.2,0.1,0.4,0.1c0.4,0,0.8-0.2,0.9-0.6C40,9,39.7,8.4,39.2,8.2z M49,23
	c-0.6,0-1,0.5-1,1c0,0.3,0,0.6,0,0.9c0,0.6,0.4,1,0.9,1.1c0,0,0,0,0.1,0c0.5,0,1-0.4,1-0.9c0-0.4,0-0.7,0-1.1v-0.1
	C50,23.4,49.6,23,49,23z M33,46c-12.1,0-22-9.9-22-22c0-12.1,9.9-22,22-22s22,9.9,22,22C55,36.1,45.1,46,33,46z M33,0
	C19.8,0,9,10.8,9,24c0,13.2,10.8,24,24,24s24-10.8,24-24C57,10.8,46.2,0,33,0z M41,36.7c-0.3,0.2-0.5,0.3-0.8,0.5
	c-0.5,0.3-0.7,0.9-0.4,1.4c0.2,0.3,0.5,0.5,0.9,0.5c0.2,0,0.3,0,0.5-0.1c0.3-0.2,0.6-0.4,0.9-0.5c0.5-0.3,0.6-0.9,0.3-1.4
	C42.1,36.5,41.5,36.4,41,36.7z M48.7,27c-0.5-0.1-1.1,0.2-1.2,0.7c-0.1,0.3-0.2,0.6-0.3,0.9c-0.2,0.5,0.1,1.1,0.6,1.3
	c0.1,0,0.2,0,0.3,0c0.4,0,0.8-0.3,1-0.7c0.1-0.3,0.2-0.7,0.3-1C49.6,27.7,49.3,27.1,48.7,27z M43.9,34.3c-0.2,0.2-0.4,0.5-0.7,0.7
	c-0.4,0.4-0.4,1,0,1.4c0.2,0.2,0.5,0.3,0.7,0.3c0.2,0,0.5-0.1,0.7-0.3c0.3-0.2,0.5-0.5,0.8-0.8c0.4-0.4,0.4-1,0-1.4
	C45,33.8,44.3,33.9,43.9,34.3z M47.5,30.8c-0.5-0.3-1.1-0.1-1.4,0.4c-0.2,0.3-0.3,0.5-0.5,0.8c-0.3,0.5-0.2,1.1,0.3,1.4
	c0.2,0.1,0.4,0.2,0.5,0.2c0.3,0,0.7-0.2,0.8-0.5c0.2-0.3,0.4-0.6,0.5-0.9C48.2,31.7,48,31.1,47.5,30.8z M44.5,14.4
	c0.2,0.2,0.5,0.4,0.8,0.4c0.2,0,0.5-0.1,0.6-0.2c0.4-0.4,0.5-1,0.1-1.4c-0.2-0.3-0.5-0.5-0.7-0.8c-0.4-0.4-1-0.4-1.4,0
	c-0.4,0.4-0.4,1,0,1.4C44.1,13.9,44.3,14.2,44.5,14.4z M30,9.3c0.1,0,0.1,0,0.2,0c0.3-0.1,0.6-0.1,0.9-0.1C31.6,9.1,32,8.6,31.9,8
	c-0.1-0.5-0.6-0.9-1.1-0.9c-0.4,0-0.7,0.1-1.1,0.2c-0.5,0.1-0.9,0.6-0.8,1.2C29.1,9,29.5,9.3,30,9.3z M24.4,10.5
	c-0.3-0.4-1-0.5-1.4-0.2c-0.3,0.2-0.6,0.4-0.8,0.7c-0.4,0.4-0.5,1-0.1,1.4c0.2,0.2,0.5,0.4,0.8,0.4c0.2,0,0.5-0.1,0.6-0.2
	c0.2-0.2,0.5-0.4,0.7-0.6C24.6,11.6,24.7,10.9,24.4,10.5z M47.5,20.2c0.1,0.3,0.1,0.6,0.2,0.9c0.1,0.5,0.5,0.8,1,0.8
	c0.1,0,0.1,0,0.2,0c0.5-0.1,0.9-0.6,0.8-1.2c-0.1-0.4-0.1-0.7-0.2-1c-0.1-0.5-0.7-0.9-1.2-0.7C47.7,19.1,47.4,19.7,47.5,20.2z
	 M20,15.6c0.3,0,0.6-0.1,0.8-0.4c0.2-0.3,0.4-0.5,0.6-0.7c0.4-0.4,0.3-1.1-0.1-1.4c-0.4-0.4-1.1-0.3-1.4,0.1
	c-0.2,0.3-0.4,0.6-0.7,0.8c-0.3,0.4-0.2,1.1,0.2,1.4C19.6,15.6,19.8,15.6,20,15.6z M46.1,16.7c0.2,0.3,0.3,0.6,0.4,0.8
	c0.2,0.4,0.5,0.6,0.9,0.6c0.1,0,0.3,0,0.4-0.1c0.5-0.2,0.7-0.8,0.5-1.3c-0.2-0.3-0.3-0.6-0.5-0.9c-0.3-0.5-0.9-0.7-1.4-0.4
	C46,15.6,45.9,16.2,46.1,16.7z M41,11.3c0.3,0.2,0.5,0.3,0.8,0.5C42,12,42.2,12,42.4,12c0.3,0,0.6-0.1,0.8-0.4
	c0.3-0.4,0.2-1.1-0.2-1.4c-0.3-0.2-0.6-0.4-0.9-0.6c-0.5-0.3-1.1-0.2-1.4,0.3C40.4,10.4,40.5,11,41,11.3z M33.9,9
	c0.3,0,0.6,0,0.9,0.1c0,0,0.1,0,0.1,0c0.5,0,0.9-0.4,1-0.9c0.1-0.5-0.3-1-0.9-1.1c-0.4,0-0.7-0.1-1.1-0.1C33.5,7,33,7.4,33,8
	C32.9,8.5,33.3,9,33.9,9z M17.7,19.1c0.1,0,0.2,0.1,0.4,0.1c0.4,0,0.8-0.2,0.9-0.6c0.1-0.3,0.2-0.6,0.4-0.9c0.2-0.5,0-1.1-0.5-1.3
	c-0.5-0.2-1.1,0-1.3,0.5c-0.2,0.3-0.3,0.6-0.4,1C17,18.3,17.2,18.9,17.7,19.1z M22.7,35c-0.4-0.4-1-0.4-1.4,0c-0.4,0.4-0.4,1,0,1.4
	c0.3,0.2,0.5,0.5,0.8,0.7c0.2,0.2,0.4,0.2,0.6,0.2c0.3,0,0.6-0.1,0.8-0.4c0.4-0.4,0.3-1.1-0.1-1.4C23.2,35.4,23,35.2,22.7,35z
	 M20.3,32.1c-0.3-0.5-0.9-0.6-1.4-0.3c-0.5,0.3-0.6,0.9-0.3,1.4c0.2,0.3,0.4,0.6,0.6,0.9c0.2,0.3,0.5,0.4,0.8,0.4
	c0.2,0,0.4-0.1,0.6-0.2c0.4-0.3,0.5-1,0.2-1.4C20.7,32.6,20.5,32.3,20.3,32.1z M19.1,29.5c-0.1-0.3-0.2-0.6-0.3-0.9
	c-0.2-0.5-0.7-0.8-1.3-0.6c-0.5,0.2-0.8,0.7-0.6,1.3c0.1,0.3,0.2,0.7,0.4,1c0.2,0.4,0.5,0.6,0.9,0.6c0.1,0,0.3,0,0.4-0.1
	C19,30.6,19.3,30.1,19.1,29.5z M17,23c0,0,0.1,0,0.1,0c0.5,0,0.9-0.4,1-0.9c0-0.3,0.1-0.6,0.1-0.9c0.1-0.5-0.3-1.1-0.8-1.2
	c-0.5-0.1-1.1,0.3-1.2,0.8c-0.1,0.3-0.1,0.7-0.2,1.1C16.1,22.5,16.5,23,17,23z M17.3,27c0.5-0.1,0.9-0.6,0.9-1.1
	c0-0.3-0.1-0.6-0.1-0.9c0-0.6-0.5-1-1.1-0.9c-0.6,0-1,0.5-0.9,1.1c0,0.4,0.1,0.7,0.1,1.1c0.1,0.5,0.5,0.9,1,0.9
	C17.2,27,17.2,27,17.3,27z"/>
<path class="st1" d="M26.2,19.1c-3.8-1.4-7.7-3-11.8-3.7c-2.7-0.5-5.7-0.6-7.8,0.8c-2.1,1.3-2.7,3.6-3.1,5.6
	c-0.3,1.6-0.4,3.2,0.3,4.7c0.5,1,1.4,1.9,2.1,2.9c2.2,3.4,0.6,7.6-1.7,10.9c-1.1,1.6-2.4,3-3.3,4.7c-0.9,1.7-1.3,3.6-0.5,5.3
	c0.7,1.7,2.5,2.9,4.4,3.8c3.9,1.8,8.5,2.3,13,2.6c9.9,0.6,19.9,0.4,29.9,0.1c3.7-0.1,7.4-0.2,11-0.8c2-0.3,4.1-0.8,5.5-1.9
	c1.9-1.5,2.3-3.9,1.1-5.8c-2.1-3.1-7.8-3.8-9.3-7.1c-0.8-1.8,0-3.8,1.2-5.5c2.5-3.6,6.7-6.8,6.9-10.9c0.2-2.8-1.9-5.7-5-7
	c-3.3-1.4-7.8-1.2-10.2,1.1c-2.5,2.4-6.8,3.3-10.6,3.2C34.1,21.8,30.1,20.5,26.2,19.1z"/>
</svg>
