<?xml version="1.0" encoding="utf-8"?>
<!-- Generator: Adobe Illustrator 20.0.0, SVG Export Plug-In . SVG Version: 6.00 Build 0)  -->
<svg version="1.1" id="Layer_1" xmlns="http://www.w3.org/2000/svg" xmlns:xlink="http://www.w3.org/1999/xlink" x="0px" y="0px"
	 viewBox="0 0 66 57" style="enable-background:new 0 0 66 57;" xml:space="preserve">
<style type="text/css">
	.st0{opacity:0.1;fill:#3262F2;}
	.st1{fill:#3262F2;}
</style>
<path class="st0" d="M26.2,19.1c-3.8-1.4-7.7-3-11.8-3.7c-2.7-0.5-5.7-0.6-7.8,0.8c-2.1,1.3-2.7,3.6-3.1,5.6
	c-0.3,1.6-0.4,3.2,0.3,4.7c0.5,1,1.4,1.9,2.1,2.9c2.2,3.4,0.6,7.6-1.7,10.9c-1.1,1.6-2.4,3-3.3,4.7c-0.9,1.7-1.3,3.6-0.5,5.3
	c0.7,1.7,2.5,2.9,4.4,3.8c3.9,1.8,8.5,2.3,13,2.6c9.9,0.6,19.9,0.4,29.9,0.1c3.7-0.1,7.4-0.2,11-0.8c2-0.3,4.1-0.8,5.5-1.9
	c1.9-1.5,2.3-3.9,1.1-5.8c-2.1-3.1-7.8-3.8-9.3-7.1c-0.8-1.8,0-3.8,1.2-5.5c2.5-3.6,6.7-6.8,6.9-10.9c0.2-2.8-1.9-5.7-5-7
	c-3.3-1.4-7.8-1.2-10.2,1.1c-2.5,2.4-6.8,3.3-10.6,3.2C34.1,21.8,30.1,20.5,26.2,19.1z"/>
<path class="st1" d="M16,16c0-5,4-9,9-9c5,0,9,4,9,9c0,5-4,9-9,9C20,25,16,21,16,16z M36,16c0-6.1-4.9-11-11-11c-6.1,0-11,4.9-11,11
	c0,6.1,4.9,11,11,11C31.1,27,36,22.1,36,16z M11,16c0-7.7,6.3-14,14-14c7.7,0,14,6.3,14,14s-6.3,14-14,14C17.3,30,11,23.7,11,16z
	 M41,16c0-8.8-7.2-16-16-16C16.2,0,9,7.2,9,16s7.2,16,16,16C33.8,32,41,24.8,41,16z M46.3,15.3c-0.5-0.2-1.1,0-1.3,0.6
	c-0.2,0.5,0,1.1,0.6,1.3C51.3,19.4,55,24.9,55,31c0,8.3-6.7,15-15,15c-6.1,0-11.6-3.7-13.9-9.4c-0.2-0.5-0.8-0.8-1.3-0.6
	c-0.5,0.2-0.8,0.8-0.6,1.3C26.9,43.8,33,48,40,48c9.4,0,17-7.6,17-17C57,24,52.8,17.9,46.3,15.3z M45.2,21.3C48.8,23.3,51,27,51,31
	c0,6.1-4.9,11-11,11c-4,0-7.7-2.2-9.7-5.8c-0.3-0.5-0.9-0.7-1.4-0.4c-0.5,0.3-0.7,0.9-0.4,1.4C30.9,41.4,35.2,44,40,44
	c7.2,0,13-5.8,13-13c0-4.8-2.6-9.1-6.8-11.4c-0.5-0.3-1.1-0.1-1.4,0.4C44.5,20.5,44.7,21.1,45.2,21.3z M26,22v-0.5
	c1.5-0.3,2.5-1.5,2.5-3c0-1.9-1.2-2.5-2.7-3.2L25,14.9c-1.5-0.7-1.5-0.8-1.5-1.4c0-1,1-1.1,1.5-1.1c0.5,0,1.5,0.1,1.5,1.1
	c0,0.6,0.4,1,1,1s1-0.4,1-1c0-1.5-1-2.6-2.5-3V10c0-0.6-0.4-1-1-1c-0.6,0-1,0.4-1,1v0.5c-1.5,0.3-2.5,1.5-2.5,3
	c0,1.9,1.2,2.5,2.6,3.2l0.8,0.4c1.5,0.7,1.5,0.8,1.5,1.4c0,0.9-0.9,1.1-1.5,1.1c-0.6,0-1.5-0.1-1.5-1.1c0-0.6-0.4-1-1-1
	c-0.6,0-1,0.4-1,1c0,1.5,1,2.6,2.5,3V22c0,0.6,0.4,1,1,1C25.6,23,26,22.6,26,22z"/>
</svg>
