<?xml version="1.0" encoding="utf-8"?>
<!-- Generator: Adobe Illustrator 20.0.0, SVG Export Plug-In . SVG Version: 6.00 Build 0)  -->
<svg version="1.1" id="Layer_1" xmlns="http://www.w3.org/2000/svg" xmlns:xlink="http://www.w3.org/1999/xlink" x="0px" y="0px"
	 viewBox="0 0 66 57" style="enable-background:new 0 0 66 57;" xml:space="preserve">
<style type="text/css">
	.st0{opacity:0.1;fill:#3262F2;}
	.st1{fill:#3262F2;}
</style>
<path class="st0" d="M26.2,19.1c-3.8-1.4-7.7-3-11.8-3.7c-2.7-0.5-5.7-0.6-7.8,0.8c-2.1,1.3-2.7,3.6-3.1,5.6
	c-0.3,1.6-0.4,3.2,0.3,4.7c0.5,1,1.4,1.9,2.1,2.9c2.2,3.4,0.6,7.6-1.7,10.9c-1.1,1.6-2.4,3-3.3,4.7c-0.9,1.7-1.3,3.6-0.5,5.3
	c0.7,1.7,2.5,2.9,4.4,3.8c3.9,1.8,8.5,2.3,13,2.6c9.9,0.6,19.9,0.4,29.9,0.1c3.7-0.1,7.4-0.2,11-0.8c2-0.3,4.1-0.8,5.5-1.9
	c1.9-1.5,2.3-3.9,1.1-5.8c-2.1-3.1-7.8-3.8-9.3-7.1c-0.8-1.8,0-3.8,1.2-5.5c2.5-3.6,6.7-6.8,6.9-10.9c0.2-2.8-1.9-5.7-5-7
	c-3.3-1.4-7.8-1.2-10.2,1.1c-2.5,2.4-6.8,3.3-10.6,3.2C34.1,21.8,30.1,20.5,26.2,19.1z"/>
<path class="st1" d="M23.1,2c2.5,0,5.4,1.6,6.7,6H27c-0.1,0-7,0-7-4C20,2.7,21.5,2,23.1,2z M27,10h4c0,0,0,0,0,0c0.6,0,1-0.4,1-1
	c0-0.1,0-0.3-0.1-0.4C30.6,2.3,26.3,0,23,0c0,0,0,0,0,0c-2.9,0-5,1.7-5,4C18,9.9,26.6,10,27,10z M53,44c0,1-1,2-2,2H15c-1,0-2-1-2-2
	v-0.9c1.4-5.5,9.9-21.9,11.6-25.1h16.8c1.7,3.2,10.2,19.6,11.6,25.1V44z M55,42.8c-1.5-6.2-11.7-25.4-12.1-26.2
	C42.7,16.2,42.4,16,42,16H24c-0.4,0-0.7,0.2-0.9,0.5C22.7,17.3,12.5,36.6,11,42.8c0,0.1,0,0.2,0,0.2v1c0,2.1,1.9,4,4,4h36
	c2.1,0,4-1.9,4-4v-1C55,42.9,55,42.8,55,42.8z M23,12c-0.6,0-1,0.4-1,1c0,0.6,0.4,1,1,1h20c0.6,0,1-0.4,1-1c0-0.6-0.4-1-1-1H23z
	 M34.1,31.5l-1.4-0.7c-2.5-1.2-3-1.6-3-3c0-1.9,1.7-2.6,3.3-2.6c0.8,0,3.2,0.2,3.2,2.6c0,0.6,0.4,1,1,1c0.6,0,1-0.4,1-1
	c0-2.4-1.7-4.2-4.2-4.5V22c0-0.6-0.4-1-1-1s-1,0.4-1,1v1.2c-2.6,0.4-4.3,2.1-4.3,4.5c0,2.8,1.7,3.6,4.2,4.8l1.4,0.7
	c2.5,1.2,3,1.6,3,3c0,2.4-2.5,2.6-3.3,2.6c-0.8,0-3.3-0.2-3.3-2.6c0-0.6-0.4-1-1-1c-0.6,0-1,0.4-1,1c0,2.4,1.7,4.1,4.3,4.5V42
	c0,0.6,0.4,1,1,1s1-0.4,1-1v-1.2c2.6-0.4,4.3-2.1,4.3-4.5C38.3,33.5,36.5,32.6,34.1,31.5z M43,2C43,2,43,2,43,2c1.5,0,3,0.7,3,2
	c0,3.9-6.9,4-7,4h-2.7C37.5,3.6,40.5,2,43,2z M35,10h4c0.4,0,9-0.1,9-6c0-2.3-2.1-4-5.1-4c-3.3,0-7.6,2.3-8.9,8.8
	c-0.1,0.3,0,0.6,0.2,0.8C34.4,9.9,34.7,10,35,10z"/>
</svg>
