<?xml version="1.0" encoding="utf-8"?>
<!-- Generator: Adobe Illustrator 20.0.0, SVG Export Plug-In . SVG Version: 6.00 Build 0)  -->
<svg version="1.1" id="Layer_1" xmlns="http://www.w3.org/2000/svg" xmlns:xlink="http://www.w3.org/1999/xlink" x="0px" y="0px"
	 viewBox="0 0 66 57" style="enable-background:new 0 0 66 57;" xml:space="preserve">
<style type="text/css">
	.st0{opacity:0.1;fill:#3262F2;}
	.st1{fill:#3262F2;}
</style>
<path class="st0" d="M26.2,19.1c-3.8-1.4-7.7-3-11.8-3.7c-2.7-0.5-5.7-0.6-7.8,0.8c-2.1,1.3-2.7,3.6-3.1,5.6
	c-0.3,1.6-0.4,3.2,0.3,4.7c0.5,1,1.4,1.9,2.1,2.9c2.2,3.4,0.6,7.6-1.7,10.9c-1.1,1.6-2.4,3-3.3,4.7c-0.9,1.7-1.3,3.6-0.5,5.3
	c0.7,1.7,2.5,2.9,4.4,3.8c3.9,1.8,8.5,2.3,13,2.6c9.9,0.6,19.9,0.4,29.9,0.1c3.7-0.1,7.4-0.2,11-0.8c2-0.3,4.1-0.8,5.5-1.9
	c1.9-1.5,2.3-3.9,1.1-5.8c-2.1-3.1-7.8-3.8-9.3-7.1c-0.8-1.8,0-3.8,1.2-5.5c2.5-3.6,6.7-6.8,6.9-10.9c0.2-2.8-1.9-5.7-5-7
	c-3.3-1.4-7.8-1.2-10.2,1.1c-2.5,2.4-6.8,3.3-10.6,3.2C34.1,21.8,30.1,20.5,26.2,19.1z"/>
<path class="st1" d="M33,0C19.8,0,9,10.8,9,24c0,13.2,10.8,24,24,24c13.2,0,24-10.8,24-24C57,10.8,46.2,0,33,0z M33,46
	c-12.1,0-22-9.9-22-22c0-12.1,9.9-22,22-22s22,9.9,22,22C55,36.1,45.1,46,33,46z"/>
<path class="st1" d="M42.3,16.4l-8.2-2.3C33.9,14,33.7,14,33.5,14c-0.2,0-0.4,0-0.6,0.1l-8.2,2.3c-1,0.3-1.7,1.2-1.7,2.2v4.7
	c0,8.7,9.5,11.5,9.9,11.6c0.2,0.1,0.4,0.1,0.6,0.1s0.4,0,0.6-0.1C34.5,34.8,44,32,44,23.3v-4.7C44,17.6,43.3,16.7,42.3,16.4z
	 M25.4,24.4c0-0.4-0.1-0.7-0.1-1.1v-4.7l8.2-2.3l4,1.1L25.4,24.4z M41.7,23.3c0,7-8.2,9.3-8.2,9.3S31.2,32,29,30.3l12.7-7.2V23.3z
	 M41.7,20.4l-14.4,8.2c-0.5-0.6-0.9-1.2-1.2-1.9l14.6-8.4l1,0.3V20.4z"/>
</svg>
