<?xml version="1.0" encoding="utf-8"?>
<!-- Generator: Adobe Illustrator 20.0.0, SVG Export Plug-In . SVG Version: 6.00 Build 0)  -->
<svg version="1.1" id="Layer_1" xmlns="http://www.w3.org/2000/svg" xmlns:xlink="http://www.w3.org/1999/xlink" x="0px" y="0px"
	 viewBox="0 0 66 66" style="enable-background:new 0 0 66 66;" xml:space="preserve">
<style type="text/css">
	.st0{opacity:0.1;fill:#3262F2;}
	.st1{fill:#3262F2;}
	.st2{fill:#FFFFFF;}
</style>
<path class="st0" d="M26.2,28.1c-3.8-1.4-7.7-3-11.8-3.7c-2.7-0.5-5.7-0.6-7.8,0.8c-2.1,1.3-2.7,3.6-3.1,5.6
	c-0.3,1.6-0.4,3.2,0.3,4.7c0.5,1,1.4,1.9,2.1,2.9c2.2,3.4,0.6,7.6-1.7,10.9c-1.1,1.6-2.4,3-3.3,4.7c-0.9,1.7-1.3,3.6-0.5,5.3
	c0.7,1.7,2.5,2.9,4.4,3.8c3.9,1.8,8.5,2.3,13,2.6c9.9,0.6,19.9,0.4,29.9,0.1c3.7-0.1,7.4-0.2,11-0.8c2-0.3,4.1-0.8,5.5-1.9
	c1.9-1.5,2.3-3.9,1.1-5.8c-2.1-3.1-7.8-3.8-9.3-7.1c-0.8-1.8,0-3.8,1.2-5.5c2.5-3.6,6.7-6.8,6.9-10.9c0.2-2.8-1.9-5.7-5-7
	c-3.3-1.4-7.8-1.2-10.2,1.1c-2.5,2.4-6.8,3.3-10.6,3.2C34.1,30.8,30.1,29.5,26.2,28.1z"/>
<path class="st1" d="M55.3,54.1h-3.5V35.3h2.3c1,0,1.8-0.6,2.2-1.5c0.4-0.9,0.2-1.9-0.5-2.6L34.7,10.2c-0.5-0.5-1.1-0.7-1.7-0.7
	c-0.6,0-1.2,0.2-1.7,0.7l-6.6,6.6v-2.6c0-1.3-1.1-2.4-2.3-2.4h-2.4c-1.3,0-2.3,1.1-2.3,2.4v9.6l-7.5,7.5C9.5,32,9.3,33,9.7,33.9
	c0.4,0.9,1.2,1.5,2.2,1.5h2.3v18.8h-3.5c-0.6,0-1.2,0.5-1.2,1.2c0,0.6,0.5,1.2,1.2,1.2h44.6c0.6,0,1.2-0.5,1.2-1.2
	C56.5,54.7,56,54.1,55.3,54.1z M49.8,54.5H16.2V33h-4.8L33,11.5L54.5,33h-4.8V54.5z"/>
<path class="st1" d="M33.6,28.6l8.2,2.3c1,0.3,1.7,1.2,1.7,2.2v4.7c0,8.7-9.5,11.5-9.9,11.6c-0.2,0.1-0.4,0.1-0.6,0.1
	s-0.4,0-0.6-0.1c-0.4-0.1-9.9-2.9-9.9-11.6v-4.7c0-1,0.7-2,1.7-2.2l8.2-2.3c0.2-0.1,0.4-0.1,0.6-0.1C33.2,28.5,33.4,28.5,33.6,28.6z
	"/>
<path class="st2" d="M24.8,33.1v4.7c0,0.4,0,0.7,0.1,1.1L37,32l-4-1.1L24.8,33.1z"/>
<path class="st2" d="M41.2,37.8c0,7-8.2,9.3-8.2,9.3s-2.3-0.7-4.5-2.4l12.7-7.2V37.8z"/>
<path class="st2" d="M26.8,43.1l14.4-8.2v-1.7l-1-0.3l-14.6,8.4C25.9,41.9,26.3,42.6,26.8,43.1z"/>
<polygon class="st2" points="20.1,14.2 22.4,14.2 22.4,19.1 20.1,21.5 "/>
</svg>
