<?xml version="1.0" encoding="utf-8"?>
<!-- Generator: Adobe Illustrator 20.0.0, SVG Export Plug-In . SVG Version: 6.00 Build 0)  -->
<svg version="1.1" id="Layer_1" xmlns="http://www.w3.org/2000/svg" xmlns:xlink="http://www.w3.org/1999/xlink" x="0px" y="0px"
	 viewBox="0 0 66 57" style="enable-background:new 0 0 66 57;" xml:space="preserve">
<style type="text/css">
	.st0{fill:#3262F2;}
	.st1{opacity:0.1;fill:#3262F2;}
</style>
<path class="st0" d="M39,32h6v-2h-6V32z M45,16c0,3.3-2.7,6-6,6H27c-3.3,0-6-2.7-6-6v-2c0-3.3,2.7-6,6-6h12c3.3,0,6,2.7,6,6V16z
	 M39,6H27c-4.4,0-8,3.6-8,8v2c0,4.4,3.6,8,8,8h12c4.4,0,8-3.6,8-8v-2C47,9.6,43.4,6,39,6z M49,40c0,3.3-2.7,6-6,6H23
	c-3.3,0-6-2.7-6-6V8c0-3.3,2.7-6,6-6h20c3.3,0,6,2.7,6,6V40z M43,0H23c-4.4,0-8,3.6-8,8v32c0,4.4,3.6,8,8,8h20c4.4,0,8-3.6,8-8V8
	C51,3.6,47.4,0,43,0z M25.2,36l-1,1.5l-1-1.5h-2l2,3l-2,3h2l1-1.5l1,1.5h2l-2-3l2-3H25.2z M39.2,42h2l4-6h-2L39.2,42z M23,28v2h-2v2
	h2v2h2v-2h2v-2h-2v-2H23z"/>
<path class="st1" d="M26.2,19.1c-3.8-1.4-7.7-3-11.8-3.7c-2.7-0.5-5.7-0.6-7.8,0.8c-2.1,1.3-2.7,3.6-3.1,5.6
	c-0.3,1.6-0.4,3.2,0.3,4.7c0.5,1,1.4,1.9,2.1,2.9c2.2,3.4,0.6,7.6-1.7,10.9c-1.1,1.6-2.4,3-3.3,4.7c-0.9,1.7-1.3,3.6-0.5,5.3
	c0.7,1.7,2.5,2.9,4.4,3.8c3.9,1.8,8.5,2.3,13,2.6c9.9,0.6,19.9,0.4,29.9,0.1c3.7-0.1,7.4-0.2,11-0.8c2-0.3,4.1-0.8,5.5-1.9
	c1.9-1.5,2.3-3.9,1.1-5.8c-2.1-3.1-7.8-3.8-9.3-7.1c-0.8-1.8,0-3.8,1.2-5.5c2.5-3.6,6.7-6.8,6.9-10.9c0.2-2.8-1.9-5.7-5-7
	c-3.3-1.4-7.8-1.2-10.2,1.1c-2.5,2.4-6.8,3.3-10.6,3.2C34.1,21.8,30.1,20.5,26.2,19.1z"/>
</svg>
