<?xml version="1.0" encoding="utf-8"?>
<!-- Generator: Adobe Illustrator 20.0.0, SVG Export Plug-In . SVG Version: 6.00 Build 0)  -->
<svg version="1.1" id="Layer_1" xmlns="http://www.w3.org/2000/svg" xmlns:xlink="http://www.w3.org/1999/xlink" x="0px" y="0px"
	 viewBox="0 0 66 56" style="enable-background:new 0 0 66 56;" xml:space="preserve">
<style type="text/css">
	.st0{opacity:0.1;fill:#3262F2;}
	.st1{fill:#3262F2;}
</style>
<path class="st0" d="M26.2,18.1c-3.8-1.4-7.7-3-11.8-3.7c-2.7-0.5-5.7-0.6-7.8,0.8c-2.1,1.3-2.7,3.6-3.1,5.6
	c-0.3,1.6-0.4,3.2,0.3,4.7c0.5,1,1.4,1.9,2.1,2.9c2.2,3.4,0.6,7.6-1.7,10.9c-1.1,1.6-2.4,3-3.3,4.7c-0.9,1.7-1.3,3.6-0.5,5.3
	c0.7,1.7,2.5,2.9,4.4,3.8c3.9,1.8,8.5,2.3,13,2.6c9.9,0.6,19.9,0.4,29.9,0.1c3.7-0.1,7.4-0.2,11-0.8c2-0.3,4.1-0.8,5.5-1.9
	c1.9-1.5,2.3-3.9,1.1-5.8c-2.1-3.1-7.8-3.8-9.3-7.1c-0.8-1.8,0-3.8,1.2-5.5c2.5-3.6,6.7-6.8,6.9-10.9c0.2-2.8-1.9-5.7-5-7
	c-3.3-1.4-7.8-1.2-10.2,1.1c-2.5,2.4-6.8,3.3-10.6,3.2C34.1,20.8,30.1,19.5,26.2,18.1z"/>
<path class="st1" d="M33,29c-5,0-9-4-9-9c0-5,4-9,9-9c5,0,9,4,9,9C42,25,38,29,33,29z M44,20c0-6.1-4.9-11-11-11
	c-6.1,0-11,4.9-11,11c0,6.1,4.9,11,11,11C39.1,31,44,26.1,44,20z M55,38c0,3.3-2.7,6-6,6H17c-3.3,0-6-2.7-6-6V8c0-3.3,2.7-6,6-6h32
	c3.3,0,6,2.7,6,6V38z M17,0c-4.4,0-8,3.6-8,8v30c0,4.4,3.6,8,8,8c-0.6,0,8.6,0,8,0h16c-0.6,0,8.6,0,8,0c4.4,0,8-3.6,8-8V8
	c0-4.4-3.6-8-8-8H17z M36,20l-5,4v-8L36,20z M43,37c-0.6,0-1-0.4-1-1c0-0.6,0.4-1,1-1c0.6,0,1,0.4,1,1C44,36.6,43.6,37,43,37z
	 M43,33c-1.7,0-3,1.3-3,3s1.3,3,3,3s3-1.3,3-3S44.7,33,43,33z M23,37c-0.6,0-1-0.4-1-1c0-0.6,0.4-1,1-1c0.6,0,1,0.4,1,1
	C24,36.6,23.6,37,23,37z M23,33c-1.7,0-3,1.3-3,3s1.3,3,3,3s3-1.3,3-3S24.7,33,23,33z"/>
</svg>
