<svg width="520" height="427" viewBox="0 0 520 427" fill="none" xmlns="http://www.w3.org/2000/svg">
<path fill-rule="evenodd" clip-rule="evenodd" d="M130.782 313.068C98.0193 301.099 60.5587 290.967 29.9484 308.167C26.0688 310.348 22.2461 313.092 20.1558 317.176C14.6347 327.92 23.4105 341.853 19.1334 353.21C14.8562 364.566 -1.24134 370.284 0.0764507 382.415C0.42294 385.586 2.04746 388.457 3.96167 390.931C15.9525 406.42 37.9347 407.987 56.5144 404.143C75.0942 400.3 93.265 392.33 112.18 393.333C130.356 394.324 147.079 403.543 163.733 411.302C191.81 424.418 224.601 433.829 252.656 420.647C265.51 414.605 276.137 404.318 288.441 397.135C305.021 387.544 324.079 383.847 342.8 386.589C355.296 388.451 367.224 393.135 379.454 396.366C407.23 403.699 436.221 403.459 464.843 403.171C470.171 403.117 475.585 403.05 480.691 401.441C488.251 399.039 494.488 393.507 500.492 388.096C508.382 380.992 516.692 373.184 519.237 362.56C522.241 349.949 516.022 336.544 506.797 327.974C497.572 319.404 485.78 314.72 474.272 310.203C471.432 309.098 468.399 307.975 465.491 308.81C463.582 309.363 461.975 310.708 460.549 312.155C452.381 320.467 445.48 334.526 434.341 332.268C430.365 331.463 427.11 328.539 423.963 325.836C407.161 311.423 384.56 300.294 364.282 308.258C349.451 314.083 338.983 329.043 323.953 334.322C313.263 338.082 301.647 336.454 290.4 337.187C274.042 338.244 258.12 344.357 241.738 343.985C199.967 343.036 165.164 300.805 123.563 304.828C120.303 305.141 116.747 305.933 114.747 308.66" fill="#F7F5EF"/>
<path d="M137.097 209.274C137.097 209.274 149.434 210.132 151.628 208.416C153.821 206.7 163.143 210.704 163.965 212.993C164.788 215.281 150.805 215.567 148.612 215.567C146.418 215.567 136 219 136 219L137.097 209.274Z" fill="#FBBEBE"/>
<path d="M168.474 182C159.89 184.251 152.73 190.231 148.916 198.334C145.102 206.438 145.026 215.834 148.708 224L176 211.397L168.474 182Z" fill="#4A61E4"/>
<path d="M183.626 215.001L156 227.449C162.677 241.904 179.607 248.709 194.605 242.965C209.602 237.221 217.464 220.922 212.53 205.8C207.596 190.677 191.579 181.979 176.008 185.965L183.626 215.001Z" fill="#4A61E4"/>
<path d="M136 240L131.821 281.528C131.821 281.528 130.511 297.996 126.58 301.565C126.58 301.565 126.58 306.78 125.269 308.427L123.435 330.111C123.435 330.111 126.055 338.071 125.793 339.443C125.531 340.815 126.842 345.207 126.58 345.756C126.317 346.305 114 345.756 114 345.756L116.621 301.565L124.745 240.081L136 240Z" fill="#49457A"/>
<path d="M41 359.5H232" stroke="#3F3D56"/>
<path d="M229 328C229 328 341.271 262.75 486 328" stroke="#3F3D56"/>
<path d="M251.19 317.703C241.764 315.753 235.001 307.419 235 297.754V21.3626C235 15.9621 237.136 10.7828 240.939 6.96407C244.741 3.14534 249.898 1 255.276 1H458.724C464.102 0.999999 469.259 3.14534 473.061 6.96407C476.864 10.7828 479 15.9621 479 21.3626V297.754C479 308.151 471.201 316.879 460.908 318" stroke="#3F3D56"/>
<rect x="247" y="34" width="217" height="251" stroke="#3F3D56"/>
<path fill-rule="evenodd" clip-rule="evenodd" d="M357.5 23C360.538 23 363 20.5376 363 17.5C363 14.4624 360.538 12 357.5 12C354.462 12 352 14.4624 352 17.5C352 20.5376 354.462 23 357.5 23Z" stroke="#3F3D56"/>
<path d="M345 298.796C346.175 293.028 350.783 288.951 356.073 289C361.364 289.049 365.91 293.21 367 299" stroke="#3F3D56"/>
<path d="M283 87V207H424" stroke="#3F3D56"/>
<rect x="301" y="167" width="12" height="31" fill="#3262F2"/>
<rect x="326" y="156" width="12" height="42" fill="#3262F2"/>
<rect x="349" y="143" width="12" height="55" fill="#3262F2"/>
<rect x="373" y="121" width="12" height="77" fill="#3262F2"/>
<rect x="398" y="103" width="12" height="95" fill="#3262F2"/>
<rect x="298" y="164" width="12" height="31" stroke="#3F3D56"/>
<rect x="322" y="153" width="12" height="42" stroke="#3F3D56"/>
<rect x="346" y="140" width="12" height="55" stroke="#3F3D56"/>
<rect x="370" y="118" width="12" height="77" stroke="#3F3D56"/>
<rect x="393" y="100" width="12" height="95" stroke="#3F3D56"/>
<path d="M135 146C142.732 146 149 141.299 149 135.5C149 129.701 142.732 125 135 125C127.268 125 121 129.701 121 135.5C121 141.299 127.268 146 135 146Z" fill="#663D57"/>
<path d="M112.569 343.161C112.569 343.161 106.895 357.371 109.855 359.086C112.816 360.801 143.902 359.576 143.902 359.576C143.902 359.576 149.083 356.391 143.162 354.186C143.162 354.186 138.228 353.941 135.02 351.981C131.813 350.021 128.112 346.346 128.112 346.346C128.112 346.346 127.866 340.956 125.892 342.181C124.698 342.962 123.891 344.208 123.671 345.611L112.569 343.161Z" fill="#79345F"/>
<path d="M103.955 341.29C103.955 341.29 97.6673 357.079 100.948 358.985C104.229 360.89 138.675 359.529 138.675 359.529C138.675 359.529 144.416 355.99 137.855 353.54C137.855 353.54 132.387 353.268 128.833 351.09C125.279 348.912 121.178 344.829 121.178 344.829C121.178 344.829 120.905 338.84 118.718 340.201C117.395 341.069 116.501 342.453 116.257 344.012L103.955 341.29Z" fill="#8B416F"/>
<path d="M129 239.191C129 239.191 125.972 267.679 124.595 273.764C123.73 277.771 123.178 281.84 122.944 285.933C122.944 285.933 122.669 294.784 120.191 297.273C118.726 298.731 117.928 300.734 117.989 302.805C117.989 302.805 115.511 330.739 116.888 334.058C118.264 337.377 120.133 341.689 118.756 343.902C117.38 346.114 101.747 344.568 101.747 342.909C101.747 341.249 101.747 339.866 100.921 339.036C100.095 338.207 100.921 332.952 100.921 332.952C100.921 332.952 97.6179 308.336 100.646 301.145C103.674 293.954 105.05 274.317 105.05 274.317C105.05 274.317 102.848 251.914 100.095 248.318C97.3426 244.723 100.646 232 100.646 232L129 239.191Z" fill="#4D4981"/>
<path d="M121 151.882C121.326 152.607 122.105 153.011 122.815 153.394C126.927 155.61 130.37 158.824 133.761 162C132.915 159.194 133.095 156.188 134.271 153.499C134.676 152.581 135.207 151.595 134.917 150.637C134.632 149.952 134.135 149.371 133.497 148.975C132.113 147.928 130.666 146.962 129.165 146.084C128.116 145.47 125.96 143.836 124.757 144.013C124.693 145.604 124.66 147.026 123.948 148.513C123.779 148.866 121.124 152.159 121 151.882Z" fill="#FBBEBE"/>
<path d="M135 156C141.075 156 146 150.851 146 144.5C146 138.149 141.075 133 135 133C128.925 133 124 138.149 124 144.5C124 150.851 128.925 156 135 156Z" fill="#FBBEBE"/>
<path d="M136.117 170.931C136.117 170.931 138.042 161.377 132.542 158.101C127.041 154.825 120.716 151.004 120.716 151.004C120.716 151.004 118.791 150.731 117.965 154.825C117.965 154.825 102.289 157.828 100.639 172.569C98.9887 187.31 101.739 208.875 101.739 208.875C101.739 208.875 99.2637 227.71 96.2384 237.811C96.2384 237.811 93.7632 239.994 104.764 236.719C115.765 233.443 135.017 246 135.017 246C135.017 246 136.942 244.089 136.942 242.724C136.942 241.359 139.142 233.443 139.142 233.443C139.142 233.443 141.068 199.867 141.893 196.045C142.718 192.223 138.592 171.477 136.117 170.931Z" fill="#FD6F8D"/>
<path d="M132.475 145.243C133.161 144.861 133.93 144.655 134.714 144.644C135.498 144.632 136.265 144.402 136.928 143.981C138.006 143.149 138.085 141.541 138.874 140.428C140.016 138.818 142.294 138.624 144.26 138.704C145.462 138.754 146.757 138.826 147.77 138.172C148.809 137.501 149.281 136.236 149.631 135.045C150.046 133.637 150.314 131.915 149.287 130.871C148.573 130.145 147.447 130.002 146.655 129.365C145.833 128.705 145.495 127.63 145.049 126.672C144.541 125.506 143.737 124.494 142.718 123.737C141.223 122.693 139.314 122.459 137.493 122.479C135.673 122.498 133.846 122.739 132.039 122.514C130.559 122.331 129.083 121.836 127.608 122.055C125.728 122.335 124.173 123.76 123.247 125.428C122.321 127.096 121.923 128.999 121.538 130.869L120.49 135.956C120.164 137.534 119.838 139.154 120.089 140.745C120.609 144.044 123.512 146.666 123.712 150C124.099 148.13 125.395 146.581 127.162 145.876C127.38 145.769 127.628 145.739 127.865 145.791C128.153 145.883 128.322 146.173 128.504 146.416C128.981 147.053 130.479 148.02 131.328 147.568C132.087 147.164 131.52 145.894 132.475 145.243Z" fill="#784F69"/>
<path d="M104.205 196.857C104.205 196.857 102.268 209.036 110.295 207.929C110.295 207.929 114.446 207.375 115 207.929C115.554 208.482 136.036 204.884 138.803 201.839C138.803 201.839 142.125 200.732 143.786 202.393C145.446 204.054 162.053 205.714 157.071 200.732C152.089 195.749 144.339 194.642 144.339 194.642L133.821 195.196C133.821 195.196 128.286 196.857 124.964 195.196C121.643 193.535 112.232 194.089 112.232 194.089L104.205 196.857Z" fill="#FBBEBE"/>
<path d="M114.823 158C114.823 158 103 159.373 103 177.216V200C103 200 109.568 196.98 110.882 197.255C112.196 197.529 117.45 193.686 117.45 193.686C117.45 193.686 123.493 178.863 122.968 174.745C122.442 170.627 122.705 158.549 114.823 158Z" fill="#FF859E"/>
<path d="M135.5 143C141.299 143 146 140.538 146 137.5C146 134.462 141.299 132 135.5 132C129.701 132 125 134.462 125 137.5C125 140.538 129.701 143 135.5 143Z" fill="#784F69"/>
<path d="M125.5 147C127.433 147 129 142.971 129 138C129 133.029 127.433 129 125.5 129C123.567 129 122 133.029 122 138C122 142.971 123.567 147 125.5 147Z" fill="#784F69"/>
</svg>
