<svg width="433" height="358" viewBox="0 0 433 358" fill="none" xmlns="http://www.w3.org/2000/svg">
<path d="M81 277C81 277 242.174 144.25 335 277H81Z" fill="#F2F2F2"/>
<path d="M345.5 358C386.645 358 420 352.851 420 346.5C420 340.149 386.645 335 345.5 335C304.355 335 271 340.149 271 346.5C271 352.851 304.355 358 345.5 358Z" fill="#F2F2F2"/>
<path fill-rule="evenodd" clip-rule="evenodd" d="M357.5 353C398.645 353 432 347.851 432 341.5C432 335.149 398.645 330 357.5 330C316.355 330 283 335.149 283 341.5C283 347.851 316.355 353 357.5 353Z" stroke="#3F3D56"/>
<path d="M389.939 221.548C392.932 222.636 396.286 221.715 398.303 219.251C400.321 216.786 400.562 213.316 398.904 210.597C397.247 207.877 394.053 206.501 390.938 207.165L391.126 211.025L389.3 207.717C387.507 208.559 386.123 210.079 385.45 211.941C385.211 212.594 385.066 213.277 385.019 213.97C384.782 217.312 386.791 220.405 389.939 221.548Z" fill="#6AAD38"/>
<path d="M397.464 266C396.796 262.705 399.689 259.785 402.548 257.886C405.406 255.988 408.746 254.122 409.721 250.901C411.123 246.27 406.948 242.03 403.698 238.373C401.287 235.659 399.217 232.678 397.53 229.492C396.797 228.241 396.298 226.874 396.055 225.454C395.799 223.402 396.48 221.359 397.165 219.402C399.45 212.88 401.892 206.413 404.492 200" stroke="#3F3D56"/>
<path fill-rule="evenodd" clip-rule="evenodd" d="M389.939 220.548C392.932 221.636 396.286 220.715 398.303 218.251C400.321 215.786 400.562 212.316 398.904 209.597C397.247 206.877 394.053 205.501 390.938 206.165L391.126 210.025L389.3 206.717C387.507 207.559 386.123 209.079 385.45 210.941C385.211 211.594 385.066 212.277 385.019 212.97C384.782 216.312 386.791 219.405 389.939 220.548V220.548Z" stroke="#3F3D56"/>
<path d="M398.45 198.941C399.321 196.539 401.356 194.746 403.849 194.184L404.466 197.855L405.611 194C408.873 194.048 411.729 196.2 412.676 199.322C413.624 202.444 412.444 205.82 409.759 207.673C407.074 209.526 403.499 209.43 400.917 207.436C398.335 205.443 397.338 202.008 398.45 198.941H398.45Z" fill="#6AAD38"/>
<path fill-rule="evenodd" clip-rule="evenodd" d="M398.45 196.941C399.321 194.539 401.356 192.746 403.849 192.184L404.466 195.855L405.611 192C408.873 192.048 411.729 194.2 412.676 197.322C413.624 200.444 412.444 203.82 409.759 205.673C407.074 207.526 403.499 207.43 400.917 205.436C398.335 203.443 397.338 200.008 398.45 196.941H398.45Z" stroke="#3F3D56"/>
<path d="M402.942 239.549C406.527 240.849 410.516 239.253 412.214 235.84C413.912 232.427 412.779 228.282 409.58 226.208L408.7 229.17L408.077 225.457C408.07 225.454 408.064 225.452 408.057 225.45C405.539 224.536 402.724 225.035 400.673 226.76C398.622 228.484 397.647 231.172 398.116 233.81C398.584 236.448 400.424 238.636 402.942 239.549H402.942Z" fill="#6AAD38"/>
<path fill-rule="evenodd" clip-rule="evenodd" d="M403.942 237.549C407.527 238.849 411.516 237.253 413.214 233.84C414.912 230.427 413.779 226.282 410.58 224.208L409.7 227.17L409.077 223.457C409.07 223.454 409.064 223.452 409.057 223.45C406.539 222.536 403.724 223.035 401.673 224.76C399.622 226.484 398.647 229.172 399.116 231.81C399.584 234.448 401.424 236.636 403.942 237.549L403.942 237.549Z" stroke="#3F3D56"/>
<path d="M395.115 251.798C395.729 255.291 398.705 257.876 402.248 257.996C405.792 258.115 408.935 255.736 409.782 252.292C410.629 248.849 408.949 245.283 405.755 243.744C402.561 242.205 398.725 243.114 396.561 245.923L399.904 250.954L395.336 248.284C394.982 249.421 394.906 250.626 395.115 251.798Z" fill="#6AAD38"/>
<path fill-rule="evenodd" clip-rule="evenodd" d="M395.115 250.798C395.729 254.291 398.705 256.876 402.248 256.996C405.792 257.115 408.935 254.736 409.782 251.292C410.629 247.849 408.949 244.283 405.755 242.744C402.561 241.205 398.725 242.114 396.561 244.923L399.904 249.954L395.336 247.284C394.982 248.421 394.906 249.626 395.115 250.798V250.798Z" stroke="#3F3D56"/>
<path d="M388 270.936C388 270.936 394.45 268.355 396.394 266.942C398.338 265.529 406.315 263.842 406.797 266.108C407.28 268.375 416.49 277.381 409.209 277.44C401.927 277.5 392.289 278.66 390.349 277.454C388.409 276.247 388 270.936 388 270.936Z" fill="#656380"/>
<path opacity="0.2" d="M409.34 276.665C402.058 276.725 392.419 277.873 390.479 276.678C389.001 275.769 388.412 272.506 388.215 271C388.079 271.006 388 271.008 388 271.008C388 271.008 388.409 276.265 390.349 277.459C392.289 278.654 401.928 277.506 409.21 277.446C411.312 277.429 412.038 276.673 411.998 275.554C411.706 276.23 410.905 276.653 409.34 276.665Z" fill="black"/>
<rect x="77" y="201" width="29" height="76" rx="11.8505" fill="#6AAD38"/>
<rect x="132" y="155" width="29" height="123" rx="11.8505" fill="#6AAD38"/>
<rect x="187" y="123" width="29" height="154" rx="11.8505" fill="#6AAD38"/>
<rect x="242" y="93" width="29" height="185" rx="11.8505" fill="#6AAD38"/>
<rect x="298" y="39" width="29" height="239" rx="11.8505" fill="#6AAD38"/>
<rect x="80" y="197" width="29" height="76" rx="11.8505" stroke="#3F3D56"/>
<rect x="136" y="151" width="29" height="123" rx="11.8505" stroke="#3F3D56"/>
<rect x="191" y="120" width="29" height="154" rx="11.8505" stroke="#3F3D56"/>
<rect x="246" y="89" width="29" height="185" rx="11.8505" stroke="#3F3D56"/>
<rect x="302" y="36" width="29" height="239" rx="11.8505" stroke="#3F3D56"/>
<path d="M417 278.5H0" stroke="#3F3D56"/>
<path opacity="0.7" d="M390.327 231C390.327 231 394.791 247.376 389.136 249.802C383.482 252.228 385.268 231.607 385.268 231.607L390.327 231Z" fill="#656380"/>
<path d="M349.534 336.135C349.534 336.135 345.3 335.831 343.788 336.743C342.872 337.281 341.768 337.392 340.764 337.047C340.764 337.047 334.11 336.439 336.53 339.782C338.949 343.125 341.368 344.341 341.368 345.86C341.368 347.38 351.348 347.38 351.651 345.86C351.953 344.341 352.256 336.439 351.651 336.135C351.046 335.831 349.534 336.135 349.534 336.135Z" fill="#575A89"/>
<path d="M360.466 336.135C360.466 336.135 364.7 335.831 366.212 336.743C367.128 337.281 368.232 337.392 369.236 337.047C369.236 337.047 375.89 336.439 373.47 339.782C371.051 343.125 368.632 344.341 368.632 345.86C368.632 347.38 358.652 347.38 358.349 345.86C358.047 344.341 357.744 336.439 358.349 336.135C358.954 335.831 360.466 336.135 360.466 336.135Z" fill="#575A89"/>
<path d="M336.292 227.521C336.292 227.521 334.156 275.666 335.377 278.103C336.597 280.541 340.869 321.677 340.259 324.115C339.649 326.552 336.597 336.608 340.259 338.131C343.921 339.655 351.855 338.131 351.855 338.131C351.855 338.131 353.991 325.943 353.075 319.544C352.16 313.145 351.855 286.33 351.855 286.33L357.958 258.297L360.094 284.807C360.094 284.807 360.704 321.068 356.432 328.381C352.16 335.694 357.958 338.741 357.958 338.741C357.958 338.741 369.554 340.264 370.774 339.96C371.995 339.655 369.859 327.771 370.774 322.591C371.69 317.411 373.826 288.463 375.657 281.455C377.488 274.447 387.863 235.444 380.234 227.521C372.605 219.599 336.292 227.521 336.292 227.521Z" fill="#3262F2"/>
<path d="M358.5 129C364.299 129 369 124.299 369 118.5C369 112.701 364.299 108 358.5 108C352.701 108 348 112.701 348 118.5C348 124.299 352.701 129 358.5 129Z" fill="#A0616A"/>
<path opacity="0.7" d="M351 124.915C351 124.915 352.821 139.559 351.911 139.864C351 140.169 368 139.864 368 139.864C368 139.864 364.661 131.017 368 124L351 124.915Z" fill="#656380"/>
<path d="M351 136.591C351 136.591 358.526 128.511 367.424 136.591L368 139L363.352 138.948H351V136.591Z" fill="#F2F2F2"/>
<path d="M387.272 230.181C386.571 230.32 384.853 230.606 382.613 230.945C375.156 232.071 361.942 233.776 361.475 232.608C360.868 231.091 358.743 225.631 357.226 228.057C355.708 230.484 356.619 232.608 350.245 232.911C345.908 233.117 339.604 232.48 336.114 231.479C334.475 231.009 333.455 230.46 333.553 229.878C333.856 228.057 337.195 193.475 337.195 190.138C337.195 186.801 338.409 170.723 338.409 170.723L329.686 153.569L329 152.219C329 152.219 329.911 148.882 332.642 148.275C335.374 147.668 348.424 140.084 348.424 140.084C348.424 140.084 351.156 135.837 356.315 136.141C361.475 136.444 362.689 134.321 369.669 140.084C369.669 140.084 378.167 143.725 381.202 145.545C384.237 147.365 387.576 147.365 387.879 150.399C387.94 151.008 387.609 152.182 387.041 153.666C384.963 159.102 379.709 168.721 378.886 170.22C378.814 170.35 378.774 170.42 378.774 170.42C378.774 170.42 378.616 175.874 378.783 182.26V182.275C378.947 188.4 379.408 195.38 380.595 199.239C383.023 207.126 390.307 229.574 387.272 230.181Z" fill="#6AAD38"/>
<path d="M371.942 115.76C371.729 114.784 371.319 113.862 370.738 113.052C370.506 110.811 369.763 108.655 368.567 106.75C368.099 105.858 367.434 105.086 366.623 104.492C365.694 103.954 364.634 103.688 363.563 103.724C363.369 103.721 363.02 103.78 362.705 103.795C362.504 103.732 362.301 103.676 362.097 103.624C361.978 103.358 361.743 102.582 361.677 102.635L360.79 103.344C360.414 103.279 360.037 103.228 359.658 103.187C359.52 102.791 359.382 102.396 359.245 102C359.021 102.354 358.825 102.725 358.658 103.109C358.281 103.091 357.904 103.084 357.526 103.09L356.772 102.36C356.681 102.776 356.354 103.098 355.94 103.181C355.592 103.217 355.247 103.264 354.902 103.319C354.874 103.319 354.845 103.319 354.818 103.319C352.96 103.272 350.96 103.188 349.407 104.215C348.679 104.717 348.088 105.393 347.684 106.182C347.494 106.312 347.303 106.441 347.118 106.579C346.495 107.007 345.955 107.546 345.524 108.169C345.211 108.707 344.974 109.286 344.819 109.889C344.226 111.705 343.951 113.61 344.007 115.521C344.071 117.444 344.792 119.287 346.049 120.737C346.846 121.599 347.859 122.235 348.657 123.096C350.3 124.868 350.608 127.339 352.013 129.214C353.5 131.197 356.213 132.502 358.596 132.876C361.489 133.315 364.437 132.575 366.787 130.821C367.345 130.429 367.819 129.929 368.181 129.349C369.008 127.91 368.658 126.101 368.965 124.467C369.54 121.405 372.444 118.835 371.942 115.76Z" fill="#3262F2"/>
<path opacity="0.7" d="M332.327 232C332.327 232 336.791 248.376 331.136 250.802C325.482 253.228 327.268 232.607 327.268 232.607L332.327 232Z" fill="#656380"/>
<path opacity="0.1" d="M338.227 195.007C338.227 195.007 336.208 224.817 336.519 232C334.857 231.525 333.823 230.971 333.921 230.383C334.229 228.546 337.614 193.641 337.614 190.273C337.614 186.905 338.846 170.677 338.846 170.677L330 153.363C330.142 152.505 330.228 152 330.228 152L334.691 161.339L341 163.023L338.227 195.007Z" fill="black"/>
<path d="M330.621 150L328.526 151.83C328.526 151.83 325.833 167.993 326.133 171.957C326.432 175.922 319.848 236 324.936 236C330.023 236 335.708 235.085 334.811 232.95C333.913 230.816 336.305 194.665 336.305 194.665L339 162.809L330.621 150Z" fill="#6AAD38"/>
<path opacity="0.1" d="M387 154.231C384.961 159.738 379.807 169.482 379 171C379.024 167.07 379.039 164.289 379.039 164.289L385.291 151.076L386.631 150C386.631 150 386.774 151.626 387 154.231Z" fill="black"/>
<path opacity="0.1" d="M387.231 231.23C386.491 231.371 384.677 231.658 382.311 232C381.083 223.351 377.801 198.478 378.009 196.136C378.112 194.981 378.199 189.276 378.266 183C378.439 189.166 378.926 196.194 380.18 200.079C382.744 208.019 390.437 230.62 387.231 231.23Z" fill="black"/>
<path d="M383.81 149L388.319 150.212C388.319 150.212 391.325 183.858 391.626 189.617C391.926 195.377 395.534 230.841 394.933 232.357C394.331 233.872 385.012 235.994 384.712 234.479C384.411 232.963 380.041 198.764 380.272 196.01C380.503 193.255 379 164.762 379 164.762L383.81 149Z" fill="#6AAD38"/>
<path d="M95 168L150.129 122.069L205.742 90.6426L260.871 60.1832L316 7" stroke="#3F3D56"/>
<path d="M93.5 176C96.5376 176 99 173.538 99 170.5C99 167.462 96.5376 165 93.5 165C90.4624 165 88 167.462 88 170.5C88 173.538 90.4624 176 93.5 176Z" fill="#F2F2F2"/>
<path d="M148.5 129C151.538 129 154 126.538 154 123.5C154 120.462 151.538 118 148.5 118C145.462 118 143 120.462 143 123.5C143 126.538 145.462 129 148.5 129Z" fill="#F2F2F2"/>
<path d="M204.5 99C207.538 99 210 96.5376 210 93.5C210 90.4624 207.538 88 204.5 88C201.462 88 199 90.4624 199 93.5C199 96.5376 201.462 99 204.5 99Z" fill="#F2F2F2"/>
<path d="M258.5 68C261.538 68 264 65.5376 264 62.5C264 59.4624 261.538 57 258.5 57C255.462 57 253 59.4624 253 62.5C253 65.5376 255.462 68 258.5 68Z" fill="#F2F2F2"/>
<path d="M314.5 15C317.538 15 320 12.5376 320 9.5C320 6.46243 317.538 4 314.5 4C311.462 4 309 6.46243 309 9.5C309 12.5376 311.462 15 314.5 15Z" fill="#F2F2F2"/>
<path fill-rule="evenodd" clip-rule="evenodd" d="M94.5 173C97.5376 173 100 170.538 100 167.5C100 164.462 97.5376 162 94.5 162C91.4624 162 89 164.462 89 167.5C89 170.538 91.4624 173 94.5 173Z" stroke="#3F3D56"/>
<path fill-rule="evenodd" clip-rule="evenodd" d="M150.5 127C153.538 127 156 124.538 156 121.5C156 118.462 153.538 116 150.5 116C147.462 116 145 118.462 145 121.5C145 124.538 147.462 127 150.5 127Z" stroke="#3F3D56"/>
<path fill-rule="evenodd" clip-rule="evenodd" d="M205.5 96C208.538 96 211 93.5376 211 90.5C211 87.4624 208.538 85 205.5 85C202.462 85 200 87.4624 200 90.5C200 93.5376 202.462 96 205.5 96Z" stroke="#3F3D56"/>
<path fill-rule="evenodd" clip-rule="evenodd" d="M261.5 65C264.538 65 267 62.5376 267 59.5C267 56.4624 264.538 54 261.5 54C258.462 54 256 56.4624 256 59.5C256 62.5376 258.462 65 261.5 65Z" stroke="#3F3D56"/>
<path fill-rule="evenodd" clip-rule="evenodd" d="M316.5 12C319.538 12 322 9.53757 322 6.5C322 3.46243 319.538 1 316.5 1C313.462 1 311 3.46243 311 6.5C311 9.53757 313.462 12 316.5 12Z" stroke="#3F3D56"/>
</svg>
