<svg width="571" height="435" viewBox="0 0 571 435" fill="none" xmlns="http://www.w3.org/2000/svg">
<path opacity="0.1" d="M564.551 215.726C580.212 305.78 570.666 394.347 498.668 424.545C426.671 454.743 339.437 410.212 303.826 325.082C268.215 239.953 338.515 194.772 369.709 116.263C433.055 -43.1634 515.917 -63.9343 564.551 215.726Z" fill="#6AAD38"/>
<path d="M505 367C507.209 367 509 365.209 509 363C509 360.791 507.209 359 505 359C502.791 359 501 360.791 501 363C501 365.209 502.791 367 505 367Z" fill="#6AAD38"/>
<path d="M525.5 434V385V434Z" fill="#3F3D56"/>
<path d="M525.5 434V385" stroke="#3F3D56" stroke-width="2"/>
<path d="M526 392C529.866 392 533 388.866 533 385C533 381.134 529.866 378 526 378C522.134 378 519 381.134 519 385C519 388.866 522.134 392 526 392Z" fill="#6AAD38"/>
<path d="M524 413C524 413 523.07 392.847 504 395.189L524 413Z" fill="#6AAD38"/>
<path d="M24 57.5H220" stroke="#F2F2F2" stroke-width="2"/>
<path d="M24 117.5H220" stroke="#F2F2F2" stroke-width="2"/>
<path d="M24 166.5H220" stroke="#F2F2F2" stroke-width="2"/>
<path d="M37 225.5H210" stroke="#3F3D56" stroke-width="2"/>
<path fill-rule="evenodd" clip-rule="evenodd" d="M28 235C33.5228 235 38 230.523 38 225C38 219.477 33.5228 215 28 215C22.4772 215 18 219.477 18 225C18 230.523 22.4772 235 28 235Z" stroke="#3F3D56" stroke-width="2"/>
<path d="M81.5 225V166" stroke="#3F3D56" stroke-width="2"/>
<path d="M123.5 225V118" stroke="#3F3D56" stroke-width="2"/>
<path d="M167.5 224V57" stroke="#3F3D56" stroke-width="2"/>
<path d="M81 234C85.9706 234 90 229.971 90 225C90 220.029 85.9706 216 81 216C76.0294 216 72 220.029 72 225C72 229.971 76.0294 234 81 234Z" fill="#6AAD38"/>
<path d="M124 234C128.971 234 133 229.971 133 225C133 220.029 128.971 216 124 216C119.029 216 115 220.029 115 225C115 229.971 119.029 234 124 234Z" fill="#6AAD38"/>
<path d="M168 234C172.971 234 177 229.971 177 225C177 220.029 172.971 216 168 216C163.029 216 159 220.029 159 225C159 229.971 163.029 234 168 234Z" fill="#6AAD38"/>
<path fill-rule="evenodd" clip-rule="evenodd" d="M220 235C225.523 235 230 230.523 230 225C230 219.477 225.523 215 220 215C214.477 215 210 219.477 210 225C210 230.523 214.477 235 220 235Z" stroke="#3F3D56" stroke-width="2"/>
<path d="M79 190C92.2548 190 103 179.255 103 166C103 152.745 92.2548 142 79 142C65.7452 142 55 152.745 55 166C55 179.255 65.7452 190 79 190Z" fill="#3262F2"/>
<path d="M124 142C137.255 142 148 131.255 148 118C148 104.745 137.255 94 124 94C110.745 94 100 104.745 100 118C100 131.255 110.745 142 124 142Z" fill="#3262F2"/>
<path d="M169 82C182.255 82 193 71.2548 193 58C193 44.7452 182.255 34 169 34C155.745 34 145 44.7452 145 58C145 71.2548 155.745 82 169 82Z" fill="#3262F2"/>
<path d="M168 66C172.971 66 177 61.9706 177 57C177 52.0294 172.971 48 168 48C163.029 48 159 52.0294 159 57C159 61.9706 163.029 66 168 66Z" fill="#6AAD38"/>
<path d="M124 127C128.971 127 133 122.971 133 118C133 113.029 128.971 109 124 109C119.029 109 115 113.029 115 118C115 122.971 119.029 127 124 127Z" fill="#6AAD38"/>
<path d="M81 175C85.9706 175 90 170.971 90 166C90 161.029 85.9706 157 81 157C76.0294 157 72 161.029 72 166C72 170.971 76.0294 175 81 175Z" fill="#6AAD38"/>
<path d="M8.5 66C13.1944 66 17 62.1944 17 57.5C17 52.8056 13.1944 49 8.5 49C3.80558 49 0 52.8056 0 57.5C0 62.1944 3.80558 66 8.5 66Z" fill="#F2F2F2"/>
<path d="M8.5 126C13.1944 126 17 122.194 17 117.5C17 112.806 13.1944 109 8.5 109C3.80558 109 0 112.806 0 117.5C0 122.194 3.80558 126 8.5 126Z" fill="#F2F2F2"/>
<path d="M8.5 175C13.1944 175 17 171.194 17 166.5C17 161.806 13.1944 158 8.5 158C3.80558 158 0 161.806 0 166.5C0 171.194 3.80558 175 8.5 175Z" fill="#F2F2F2"/>
<path d="M416 63.0688C416 63.0688 428.255 78.9821 426.723 90.2378C425.191 101.494 452 74.7127 452 74.7127C452 74.7127 442.809 55.3062 447.787 45.9911C452.766 36.676 416 63.0688 416 63.0688Z" fill="#FFB9B9"/>
<path d="M458.337 382C458.337 382 474.372 400.026 471.7 403.944C469.027 407.863 422.068 422.754 416.723 421.97C411.379 421.186 408.706 417.268 410.615 416.092C412.524 414.917 424.741 408.255 424.741 408.255L435.049 396.107C435.049 396.107 442.684 391.797 442.684 389.445C442.684 387.094 458.337 382 458.337 382Z" fill="#2F2E41"/>
<path d="M430.702 402C430.702 402 424.329 411.75 423.134 412.125C421.939 412.5 429.109 426 429.109 426L445.839 421.125L455 414L453.008 404.25L430.702 402Z" fill="#FFB9B9"/>
<path d="M415.153 210L407.512 244.318C407.512 244.318 381.149 304.085 399.488 314.496L439.605 392L461 382.36L425.086 302.928L441.515 211.542L415.153 210Z" fill="#2354E4"/>
<path d="M416.99 216.308H413.072C412.767 228.139 413.431 239.975 415.059 251.699C417.763 271.317 424.714 316.325 424.714 316.325C424.714 316.325 423.941 324.788 426.258 327.481C428.575 330.173 428.962 326.711 429.348 332.866C429.734 339.021 433.403 381.814 433.403 381.814C433.403 381.814 435.913 390.568 433.21 392.491C430.506 394.415 425.1 404.801 428.962 406.34C432.823 407.879 459.469 409.802 460.628 408.648C461.786 407.494 460.628 335.174 460.628 335.174C460.628 335.174 459.855 320.556 459.083 319.787C458.311 319.018 454.835 308.631 455.994 306.323C457.152 304.015 456.38 297.091 456.38 295.937C456.38 294.783 452.904 295.937 455.994 290.936C459.083 285.935 459.469 245.928 459.469 245.928C459.469 245.928 476.075 220.54 471.054 214L416.99 216.308Z" fill="#3262F2"/>
<path d="M426.5 68C440.583 68 452 56.5833 452 42.5C452 28.4167 440.583 17 426.5 17C412.417 17 401 28.4167 401 42.5C401 56.5833 412.417 68 426.5 68Z" fill="#FFB9B9"/>
<path d="M452.409 69C452.409 69 437.04 72.8851 430.892 82.2092L425.513 83.3747V88.8137C425.513 88.8137 415.523 121.06 417.829 135.046C420.134 149.032 417.829 176.227 413.986 183.609C410.144 190.991 408.991 192.545 410.913 195.653C412.834 198.761 415.523 209.25 413.602 213.912C411.681 218.574 413.602 223.237 431.277 224.402C448.951 225.568 473.926 225.568 473.926 219.351C473.926 213.135 472.389 195.653 473.926 190.991C475.463 186.329 476.231 183.221 475.463 178.947C474.694 174.673 477 126.887 477 126.887C477 126.887 477.384 79.1011 452.409 69Z" fill="#6AAD38"/>
<path d="M415.099 189L393.972 220.205C393.972 220.205 371.693 240.374 379.76 249.508C387.826 258.641 408.953 222.869 408.953 222.869L432 196.992L415.099 189Z" fill="#FFB9B9"/>
<path d="M428.635 414.839C428.635 414.839 427.875 410 425.217 410C422.558 410 404.707 421.912 404.707 421.912C404.707 421.912 380.202 432.244 390.548 432.878C400.835 433.508 455.222 434.94 455.601 433.079C455.981 431.218 456.741 412.864 454.082 412.921C451.423 412.978 430.154 417.073 430.154 417.073L428.635 414.839Z" fill="#2F2E41"/>
<path d="M428.061 28.4364C427.17 28.8757 426.188 29.0977 425.195 29.0843C424.17 29.1426 422.946 29.0791 422.401 28.2088C422.143 27.6361 422.024 27.0107 422.052 26.3832C421.835 24.755 420.961 23.2866 419.634 22.3191C418.308 21.3516 416.643 20.9691 415.027 21.2606C415.136 22.5171 415.518 23.7346 416.147 24.8278C413.895 25.5921 411.416 25.2619 409.443 23.9351L409.057 29.0558C407.694 29.7075 405.948 29.8434 404.759 28.9106C403.57 27.9779 403.475 25.7887 404.82 25.0995C403.159 24.753 401.128 24.0086 401.005 22.3157C400.894 20.771 402.533 19.6405 402.835 18.1215C403.081 16.8826 402.402 15.5361 402.883 14.368C403.514 12.8335 405.805 12.4395 406.265 10.8452C406.499 10.0332 406.162 9.16469 406.243 8.32345C406.453 6.12083 409.221 5.20634 411.429 5.33153C413.637 5.45672 416.047 6.04337 417.923 4.87131C418.833 4.30301 419.468 3.39341 420.267 2.67812C422.532 0.734279 425.784 0.451383 428.351 1.97484C429.239 2.52734 430.014 3.29297 431.004 3.62878C433.031 4.316 435.145 3.01571 437.264 2.71597C438.835 2.44691 440.441 2.91257 441.625 3.9796C442.79 5.10093 443.057 6.8663 442.274 8.2821C443.517 8.07203 444.835 7.86883 446.006 8.3347C447.178 8.80057 448.073 10.2041 447.531 11.3429C447.33 11.6415 447.171 11.9666 447.059 12.309C446.949 12.9715 447.586 13.538 448.23 13.728C448.874 13.9179 449.573 13.8824 450.203 14.1132C452.808 15.0669 452.183 19.2325 454.233 21.1015C454.936 21.6131 455.679 22.0677 456.455 22.4611C458.553 23.9161 459.348 26.6407 458.362 28.9963C457.951 29.9066 457.262 30.7754 457.345 31.7708C457.461 33.1669 458.957 33.9316 460.006 34.8592C461.969 36.6705 462.55 39.5371 461.447 41.9703C460.483 43.9832 458.394 45.5092 458.182 47.7314C458.089 48.6974 458.38 49.6618 458.363 50.632C458.239 52.4488 457.294 54.1099 455.795 55.144C454.307 56.1528 452.631 56.8507 450.866 57.1958C450.038 57.3942 449.05 57.7047 448.849 58.5329C448.612 59.5148 449.707 60.4083 449.593 61.4122C449.522 61.8484 449.281 62.2386 448.923 62.4973C447.441 63.6571 445.095 62.6629 444.189 61.013C443.282 59.3632 443.398 57.3639 443.539 55.4866L444.05 48.6601C444.209 46.536 444.194 44.0136 442.463 42.7731C440.55 41.4017 437.763 42.512 435.599 41.5853C433.344 40.6197 432.536 37.7937 432.627 35.3417C432.718 32.8898 433.42 30.434 433.016 28.0134C432.516 25.0139 429.849 22.9979 427.156 24.9417C429.523 24.6192 429.931 27.3364 428.061 28.4364Z" fill="#3262F2"/>
<path opacity="0.1" d="M450.054 89.2063C450.054 89.2063 434.49 95.3522 434.49 108.412C434.49 121.472 435.268 138.757 432.545 144.519C429.821 150.281 427.487 152.201 429.043 156.811C430.599 161.42 433.323 160.652 429.043 164.109C424.763 167.566 425.152 161.804 424.763 167.566C424.374 173.328 428.654 174.096 424.763 176.785C420.872 179.473 410.756 190.229 415.036 193.686C419.316 197.143 430.599 208.282 434.49 204.057C438.381 199.832 440.326 189.076 445.774 189.845C451.221 190.613 451.999 190.997 451.221 187.156C450.443 183.315 446.941 183.315 451.61 182.162C456.279 181.01 458.224 183.699 456.668 179.858C455.112 176.016 453.945 174.48 457.057 170.255C460.17 166.029 461.726 164.877 461.337 160.652C460.948 156.427 469.897 118.399 469.897 118.399C469.897 118.399 472.621 86.1334 450.054 89.2063Z" fill="black"/>
<path opacity="0.1" d="M446.054 89.2063C446.054 89.2063 430.49 95.3522 430.49 108.412C430.49 121.472 431.268 138.757 428.545 144.519C425.821 150.281 423.487 152.201 425.043 156.811C426.599 161.42 429.323 160.652 425.043 164.109C420.763 167.566 421.152 161.804 420.763 167.566C420.374 173.328 424.654 174.096 420.763 176.785C416.872 179.473 406.756 190.229 411.036 193.686C415.316 197.143 426.599 208.282 430.49 204.057C434.381 199.832 436.326 189.076 441.774 189.845C447.221 190.613 447.999 190.997 447.221 187.156C446.443 183.315 442.941 183.315 447.61 182.162C452.279 181.01 454.224 183.699 452.668 179.858C451.112 176.016 449.945 174.48 453.057 170.255C456.17 166.029 457.726 164.877 457.337 160.652C456.948 156.427 465.897 118.399 465.897 118.399C465.897 118.399 468.621 86.1334 446.054 89.2063Z" fill="black"/>
<path d="M447.054 86.2063C447.054 86.2063 431.49 92.3522 431.49 105.412C431.49 118.472 432.268 135.757 429.545 141.519C426.821 147.281 424.487 149.201 426.043 153.811C427.599 158.42 430.323 157.652 426.043 161.109C421.763 164.566 422.152 158.804 421.763 164.566C421.374 170.328 425.654 171.096 421.763 173.785C417.872 176.473 407.756 187.229 412.036 190.686C416.316 194.143 427.599 205.282 431.49 201.057C435.381 196.832 437.326 186.076 442.774 186.845C448.221 187.613 448.999 187.997 448.221 184.156C447.443 180.315 443.941 180.315 448.61 179.162C453.279 178.01 455.224 180.699 453.668 176.858C452.112 173.016 450.945 171.48 454.057 167.255C457.17 163.029 458.726 161.877 458.337 157.652C457.948 153.427 466.897 115.399 466.897 115.399C466.897 115.399 469.621 83.1334 447.054 86.2063Z" fill="#6AAD38"/>
<path d="M531 433.5H179" stroke="#3F3D56" stroke-width="2"/>
<path d="M264.949 309V371.153L211 402.15C226.149 428.124 257.805 439.536 286.123 429.231C314.441 418.926 331.269 389.87 326.058 360.279C320.846 330.688 295.096 309.079 264.949 309V309Z" fill="#3262F2"/>
<path d="M266 394C279.255 394 290 383.255 290 370C290 356.745 279.255 346 266 346C252.745 346 242 356.745 242 370C242 383.255 252.745 394 266 394Z" fill="#6AAD38"/>
</svg>
